<svg xmlns="http://www.w3.org/2000/svg" viewBox="0 0 61 61"><style><![CDATA[.J{stroke-linejoin:round}.K{stroke-miterlimit:10}.L{stroke-linecap:round}.M{fill:none}.N{stroke:#424242}.O{fill:#546e7a}.P{stroke:#78909c}.Q{fill:#cfd8dc}.R{fill:#455a64}]]></style><g class="J N"><path d="M26.9 31.5h10.2v6H26.9z" class="K O"/><circle cx="8.6" cy="23.5" r="4" class="Q"/><path d="M39.6,60.5H2.1v-11c0-6.6,5.4-12,12-12h13.5c6.6,0,12,5.4,12,12V60.5z" class="K R"/></g><path d="M4.1,58.5v-9c0-5.5,4.5-10,10-10" stroke="#546e7a" class="J K L M"/><path d="M45.6,60.5H8.1v-11c0-6.6,5.4-12,12-12h13.5c6.6,0,12,5.4,12,12V60.5z" class="J K N O"/><path d="M10.1,58.5v-9c0-5.5,4.5-10,10-10" class="J K L M P"/><path d="M46.5 43.3l2 4.2c.1.3.4.5.8.6l4.5.7c.8.1 1.1 1.1.6 1.7L51 53.8c-.2.2-.3.5-.3.9l.8 4.7c.1.8-.7 1.4-1.5 1l-3.9-2.2a.91.91 0 0 0-1 0l-3.9 2.2c-.7.4-1.6-.2-1.5-1l.8-4.7c.1-.3 0-.6-.3-.9L37 50.4c-.6-.6-.2-1.6.6-1.7L42 48c.3-.1.6-.3.8-.6l2-4.2c.3-.7 1.4-.7 1.7.1z" fill="#ffa726" class="J K N"/><path d="M39.8 50.4l2.5-.4a3.33 3.33 0 0 0 2.3-1.7l1.1-2.2m-.1 0" stroke="#ffcc80" class="J K L M"/><path d="M54.4 33l1.1 2.3c.1.2.2.3.4.3l2.5.4c.5.1.6.6.3.9l-1.8 1.9c-.1.1-.2.3-.2.5l.4 2.6c.1.5-.4.8-.8.6l-2.2-1.2c-.2-.1-.4-.1-.5 0l-2.2 1.2c-.4.2-.9-.1-.8-.6l.4-2.6c0-.2 0-.4-.2-.5L49 37c-.3-.3-.1-.9.3-.9l2.5-.4c.2 0 .3-.1.4-.3l1.1-2.3c.2-.5.9-.5 1.1-.1z" fill="#ffa726" class="J K N"/><path d="M52.4 37.6c.6-.2 1.1-.5 1.5-1m0 0" stroke="#ffcc80" class="J K L M"/><g class="N J K"><path d="M29.1 37.5H18.6c-5.5 0-10-4.5-10-10v-17h30.5v17c0 5.5-4.5 10-10 10z" class="Q"/><path d="M8.6 10.5h4.5V19H8.6z" class="R"/><path d="M30.9,27.4c-2.3,2.3-6.1,2.3-8.5,0" class="L M"/><path d="M10.6 31.5h10.8v6H10.6z" class="R"/></g><path d="M12.6 35.5v-2" stroke="#546e7a" class="J K L M"/><g class="N J"><path d="M23.9 60.5V49l-2.5-11.5h11L29.9 49v11.5z" class="K Q"/><g class="O"><path d="M39.1 19H8.6" class="K L"/><circle cx="20.6" cy="19" r="4.5"/></g></g><path d="M18.1,19c0-1.4,1.1-2.5,2.5-2.5" class="J K L M P"/><circle cx="32.6" cy="19" r="4.5" class="J N O"/><g class="K J"><path d="M30.1,19c0-1.4,1.1-2.5,2.5-2.5" class="L M P"/><path d="M44.1,0.5H17.6c-5,0-9,4-9,9v1h30.5L44.1,0.5z" class="N O"/><g class="L M"><path d="M40.9 2.5l-3 6m6.2-8h0z" stroke="#455a64"/><path d="M10.7 8.5c.5-3.4 3.4-6 6.9-6" class="P"/></g></g></svg>