<svg xmlns="http://www.w3.org/2000/svg" viewBox="0 0 61 61"><style><![CDATA[.K{stroke-linecap:round}.L{stroke:#424242}.M{fill:none}.N{fill:#546e7a}.O{stroke:#78909c}.P{stroke-miterlimit:10}]]></style><g stroke-linejoin="round"><g class="P"><path d="M43.5,16.5h-36v-4c0-6.6,5.4-12,12-12h12c6.6,0,12,5.4,12,12V16.5z" class="L N"/><path d="M9.5,12.5c0-5.5,4.5-10,10-10" class="K M O"/></g><ellipse cx="25.5" cy="17" rx="25" ry="10" class="L N"/><g class="P"><path d="M48.5,17c0,3.3-8.7,8-23,8" stroke="#455a64" class="K M"/><path d="M43.5 60.5h-36v-36c0-4.4 3.6-8 8-8h20c4.4 0 8 3.6 8 8v36z" class="L N"/><path d="M41.5,58.5h-32v-34c0-3.3,2.7-6,6-6" class="K M O"/><path d="M41.2,60.5H3.7v-11c0-6.6,5.4-12,12-12h13.5c6.6,0,12,5.4,12,12V60.5z" fill="#455a64" class="L"/><path d="M5.7,58.5v-9c0-5.5,4.5-10,10-10" stroke="#546e7a" class="K M"/><path d="M47.2,60.5H9.7v-11c0-6.6,5.4-12,12-12h13.5c6.6,0,12,5.4,12,12V60.5z" class="L N"/><path d="M11.7,58.5v-9c0-5.5,4.5-10,10-10" class="K M O"/><g fill="#cfd8dc" class="L"><path d="M36 37.5l-7.5 18-7.5-18z"/><path d="M30.5 37.5h-4c-5.5 0-10-4.5-10-10v-7c0-2.2 1.8-4 4-4h16c2.2 0 4 1.8 4 4v7c0 5.5-4.5 10-10 10z"/></g><path d="M26.5 35.5c-4.4 0-8-3.6-8-8v-7" stroke="#eceff1" class="K M"/><g class="L"><path d="M37,26.5c0,3.3-2.7,6-6,6s-6-2.7-6-6H37z" fill="#e0e0e0"/><path d="M28.5 55.5v-9" fill="#cfd8dc" class="K"/><path d="M48.2 43.3l2 4.2c.1.3.4.5.8.6l4.5.7c.8.1 1.1 1.1.6 1.7l-3.3 3.4c-.2.2-.3.5-.3.9l.8 4.7c.1.8-.7 1.4-1.5 1l-3.9-2.2a.91.91 0 0 0-1 0L43 60.5c-.7.4-1.6-.2-1.5-1l.8-4.7c.1-.3 0-.6-.3-.9l-3.3-3.4c-.6-.6-.2-1.6.6-1.7l4.5-.7c.3-.1.6-.3.8-.6l2-4.2c.1-.8 1.2-.8 1.6 0z" fill="#ffa726"/></g><path d="M41.4 50.4l2.5-.4a3.33 3.33 0 0 0 2.3-1.7l1.1-2.2m-.1 0" stroke="#ffcc80" class="K M"/><path d="M56 33l1.1 2.3c.1.2.2.3.4.3l2.5.4c.5.1.6.6.3.9l-1.8 1.9c-.1.1-.2.3-.2.5l.4 2.6c.1.5-.4.8-.8.6l-2.2-1.2c-.2-.1-.4-.1-.5 0L53 42.6c-.4.2-.9-.1-.8-.6l.4-2.6c0-.2 0-.4-.2-.5L50.6 37c-.3-.3-.1-.9.3-.9l2.5-.4c.2 0 .3-.1.4-.3L55 33a.57.57 0 0 1 1 0z" fill="#ffa726" class="L"/><path d="M54 37.6c.6-.2 1.1-.5 1.5-1m0 0" stroke="#ffcc80" class="K M"/></g></g></svg>