<svg xmlns="http://www.w3.org/2000/svg" xmlns:xlink="http://www.w3.org/1999/xlink" viewBox="0 0 61 61"><style><![CDATA[.J{stroke-linejoin:round}.K{stroke-miterlimit:10}.L{stroke:#424242}.M{fill:#546e7a}.N{stroke-linecap:round}.O{stroke:#78909c}]]></style><g class="J K L"><path d="M59,6.5h-5v-5c0-0.6,0.4-1,1-1h3c0.6,0,1,0.4,1,1V6.5z" fill="#78909c"/><path d="M.5 8.5h52v6H.5z" fill="#ec407a"/><path d="M59.5 24.5h-6a.94.94 0 0 1-1-1v-16a.94.94 0 0 1 1-1h6a.94.94 0 0 1 1 1v16a.94.94 0 0 1-1 1z" class="M"/></g><path d="M54.5,22.5v-14" fill="none" class="J K N O"/><path d="M47.3,60.5h-13V41c0-1.7,1.3-3,3-3h7c1.7,0,3,1.3,3,3V60.5z" class="J K L M"/><g fill="none" class="N J K"><path d="M36.3 58.5V41" class="O"/><path d="M45.3 41v17.5" stroke="#455a64"/></g><g class="L J"><g fill="#cfd8dc"><path d="M32.8 11v10c0 1.7 1.3 3 3 3h0v14h10V24c1.7 0 3-1.3 3-3V11h-16z" class="K"/><use xlink:href="#B" class="K"/><use xlink:href="#B" x="-4" class="K"/><use xlink:href="#B" x="-8" class="K"/><use xlink:href="#B" x="-12" class="K"/><path d="M30.3 17.5h0c0-1.1.9-2 2-2h4c1.1 0 2 .9 2 2h0c0 1.1-.9 2-2 2h-4c-1.1 0-2-.9-2-2z" class="K"/><circle cx="14.6" cy="44.5" r="4"/><path d="M29.1 60.5h-2.5a12.04 12.04 0 0 1-12-12v-14h26.5v14a12.04 12.04 0 0 1-12 12z" class="K"/></g><path d="M39.6 38.4h-25v-5c0-5.5 4.5-10 10-10h5c5.5 0 10 4.5 10 10v5z" fill="#455a64" class="K"/><path d="M41.1 38.4h-23v-5c0-5.5 4.5-10 10-10h3c5.5 0 10 4.5 10 10v5z" class="K M"/></g><path d="M20.1,36.4v-3c0-4.4,3.6-8,8-8" fill="none" class="J K N O"/><g class="L J K"><path d="M44.4 31.9H31.1c-1.9 0-3.8.6-5.4 1.6l-7.5 4.9h23l4.3-2.8c1.6-1.1.9-3.7-1.1-3.7z" class="M"/><path d="M35.9,47.5c0,3.3-2.7,6-6,6s-6-2.7-6-6H35.9z" fill="#eceff1"/><path d="M17.5,60.5h-13V41c0-1.7,1.3-3,3-3h7c1.7,0,3,1.3,3,3V60.5z" class="M"/></g><g fill="none" class="N J K"><path d="M6.5 58.5V41" class="O"/><path d="M15.5 41v17.5" stroke="#455a64"/></g><path d="M17 6.5c-1.1 0-2 .9-2 2 0-1.1-.9-2-2-2s-2 .9-2 2c0-1.1-.9-2-2-2s-2 .9-2 2c0-1.1-.9-2-2-2s-2 .9-2 2v7h-.5c-1.1 0-2 .9-2 2s.9 2 2 2H3V21c0 1.7 1.3 3 3 3v14h10V24c1.7 0 3-1.3 3-3V8.5c0-1.1-.9-2-2-2z" fill="#cfd8dc" class="J K L"/><path d="M8 24v12M5 8.5v7" fill="none" stroke="#eceff1" class="N J K"/><defs ><path id="B" d="M46.8 15.5h0c-1.1 0-2-.9-2-2v-5c0-1.1.9-2 2-2h0c1.1 0 2 .9 2 2v5c0 1.1-.9 2-2 2z"/></defs></svg>