<svg xmlns="http://www.w3.org/2000/svg" viewBox="0 0 61 61"><style><![CDATA[.I{stroke-linejoin:round}.J{stroke-miterlimit:10}.K{stroke-linecap:round}.L{stroke:#424242}]]></style><g class="I J L"><path d="M1.8 51.5v-48c0-1.7 1.3-3 3-3h39c1.7 0 3 1.3 3 3v48c0 1.7-1.3 3-3 3h-39c-1.7 0-3-1.3-3-3z" fill="#455a64"/><path d="M5.8 51.5v-48c0-1.7 1.3-3 3-3h39c1.7 0 3 1.3 3 3v48c0 1.7-1.3 3-3 3h-39c-1.7 0-3-1.3-3-3z" fill="#546e7a"/></g><g fill="none" class="K I J"><path d="M8.2,51.5v-48" stroke="#78909c"/><path d="M48.2,3.5v48" stroke="#455a64"/></g><g class="L I J"><g fill="#cfd8dc"><path d="M58.4 30.8h0c1.2 1.2 1.2 3.1 0 4.2L39.3 54.1 35 49.9l19.1-19.1c1.2-1.2 3.1-1.2 4.3 0z"/><path d="M35 49.9l4.3 4.2-4.3 4.3-6.3 2.1 2.1-6.4z"/><path d="M28.7 60.5l4.2-4.2" class="K"/><path d="M50.892 30.44l1.768 1.768-7.07 7.07L43.82 37.5z"/></g><path d="M37.2 21.9c0-5.1-4.2-9.1-9.3-9-4.9.1-8.9 4.4-8.7 9.2.1 2.8 1.5 5.3 3.6 6.9 1.2.9 1.9 2.4 1.9 3.9v3.9h7v-3.7c0-1.6.7-3.1 1.9-4.1a8.76 8.76 0 0 0 3.6-7.1z" fill="#ffa726"/></g><path d="M21.8 22.1c-.1-3.5 2.8-6.6 6.3-6.7h.2" fill="none" stroke="#ffcc80" class="I J K"/><g class="L I J"><g fill="#cfd8dc"><path d="M30 41.8h-3.5c-1.7 0-3-1.3-3-3v-5.5H33v5.5a3.01 3.01 0 0 1-3 3z"/><path d="M29.2 44.3h-2a.94.94 0 0 1-1-1v-1.5h4v1.5c0 .5-.4 1-1 1z"/></g><path d="M27.2 33.3v-4.5l-2.4-4.5m4.4 9v-4.5l2.6-4.5" fill="none" class="K"/><path d="M37.6 14.7h0c-.5-.5-.5-1.3 0-1.8l1.8-1.8c.5-.5 1.3-.5 1.8 0h0c.5.5.5 1.3 0 1.8l-1.8 1.8c-.5.4-1.3.4-1.8 0zm-18.7 0h0c.5-.5.5-1.3 0-1.8l-1.8-1.8c-.5-.5-1.3-.5-1.8 0h0c-.5.5-.5 1.3 0 1.8l1.8 1.8c.5.4 1.3.4 1.8 0zm0 14.4h0c.5.5.5 1.3 0 1.8l-1.8 1.8c-.5.5-1.3.5-1.8 0h0c-.5-.5-.5-1.3 0-1.8l1.8-1.8c.5-.5 1.3-.5 1.8 0zm18.7 0h0c-.5.5-.5 1.3 0 1.8l1.8 1.8c.5.5 1.3.5 1.8 0h0c.5-.5.5-1.3 0-1.8l-1.8-1.8c-.5-.5-1.3-.5-1.8 0z" fill="#ffa726"/><path d="M23.5 38.8H33" fill="#546e7a" class="K"/></g></svg>