<svg xmlns="http://www.w3.org/2000/svg" viewBox="0 0 61 61"><style><![CDATA[.J{stroke-linejoin:round}.K{stroke:#424242}.L{stroke-miterlimit:10}.M{stroke-linecap:round}]]></style><g class="J K L"><path d="M49.5 46.5h-42v-37c0-1.7 1.3-3 3-3h36c1.7 0 3 1.3 3 3v37z" fill="#b0bec5"/><path d="M45.5 54.5h-42c-1.7 0-3-1.3-3-3v-2c0-1.7 1.3-3 3-3h42c1.7 0 3 1.3 3 3v2c0 1.7-1.3 3-3 3z" fill="#546e7a"/><path d="M57.5 54.5h-46c-1.7 0-3-1.3-3-3v-2c0-1.7 1.3-3 3-3h46c1.7 0 3 1.3 3 3v2c0 1.7-1.3 3-3 3z" fill="#78909c"/><path d="M53.5 46.5h-42v-37c0-1.7 1.3-3 3-3h36c1.7 0 3 1.3 3 3v37z" fill="#cfd8dc"/></g><g fill="none" class="M J L"><path d="M13.5,44.5v-35" stroke="#eceff1"/><path d="M51.5,44.5v-35" stroke="#b0bec5"/></g><circle cx="52.5" cy="34.5" r="7" fill="#ec407a" class="J K"/><g fill="none" class="L M J"><path d="M47.5,34.5c0-2.8,2.2-5,5-5" stroke="#f48fb1"/><path d="M17.5 37.5l-1.5 3m29.5 0H34l-9-18-6 12" class="K"/></g><circle cx="47.5" cy="12.5" r="2" fill="none" class="J K"/><circle cx="47.5" cy="20.5" r="2" fill="none" class="J K"/><path d="M43 37.5h-3m-2 0h-1" fill="none" class="L M J K"/></svg>