<svg xmlns="http://www.w3.org/2000/svg" xmlns:xlink="http://www.w3.org/1999/xlink" viewBox="0 0 61 61"><style><![CDATA[.L{stroke:#424242}.M{stroke-linecap:round}.N{fill:#546e7a}]]></style><g stroke-linejoin="round" stroke-miterlimit="10"><path d="M3 5.5h49v40H3z" fill="#b0bec5" class="L"/><path d="M5,43.5v-36" fill="none" stroke="#cfd8dc" class="M"/><g class="L"><path d="M52.5 5.5h-50c-1.1 0-2-.9-2-2h0c0-1.1.9-2 2-2h50c1.1 0 2 .9 2 2h0c0 1.1-.9 2-2 2zm-52 40h54v7H.5z" fill="#455a64"/><path d="M9 5.5h49v40H9z" fill="#cfd8dc"/><g fill="#ec407a"><path d="M9 29.5h0v16h12v-1c0-8.3-3.7-15-12-15z"/><path d="M9 29.5h0c3.9 0 7 3.1 7 7v9H9v-16z"/><path d="M9 29.5h0v-24h15v9a14.98 14.98 0 0 1-15 15z"/><path d="M9 29.5h0c6.1 0 9-4.9 9-11v-13H9v24zm49 0h0v16H46v-2c0-7.7 4.3-14 12-14z"/><path d="M58 29.5h0c-5 0-7 4-7 9v7h7v-16z"/><path d="M57 29.5h1v-24H43v9c0 8.3 5.7 15 14 15z"/><path d="M58 29.5h0c-6.1 0-9-4.9-9-11v-13h9v24z"/></g><path d="M58.5 5.5h-50c-1.1 0-2-.9-2-2h0c0-1.1.9-2 2-2h50c1.1 0 2 .9 2 2h0c0 1.1-.9 2-2 2zm-52 40h54v7h-54z" class="N"/><g fill="#455a64"><path d="M35 59.5H23v-8c0-2.2 1.8-4 4-4h4c2.2 0 4 1.8 4 4v8z"/><use xlink:href="#B"/><use xlink:href="#B" x="-39"/></g><use xlink:href="#B" x="-36" class="N"/></g><path d="M8.5 57.5v-6c0-1.1.9-2 2-2" fill="none" stroke="#78909c" class="M"/><g class="L"><g class="N"><path d="M38 59.5H26v-8c0-2.2 1.8-4 4-4h4c2.2 0 4 1.8 4 4v8z"/><use xlink:href="#B" x="3"/><path d="M24 1.5h19v4H24z"/></g><path d="M34 20.8l1.1 2.3c.1.2.2.3.4.3l2.5.4c.5.1.6.6.3.9l-1.8 1.9c-.1.1-.2.3-.2.5l.4 2.6c.1.5-.4.8-.8.6l-2.2-1.2c-.2-.1-.4-.1-.5 0L31 30.4c-.4.2-.9-.1-.8-.6l.4-2.6c0-.2 0-.4-.2-.5l-1.8-1.9c-.3-.3-.1-.9.3-.9l2.5-.4c.2 0 .3-.1.4-.3l1.1-2.3c.3-.5.9-.5 1.1-.1z" fill="#e0e0e0"/></g><g fill="none"><g class="M"><path d="M11,43.5v-36" stroke="#f48fb1"/><path d="M56,43.5v-36" stroke="#d81b60"/></g><g class="L"><path d="M9 29.5h0v16h12v-1c0-8.3-3.7-15-12-15z"/><path d="M9 29.5h0c3.9 0 7 3.1 7 7v9H9v-16z"/><path d="M9 29.5h0v-24h15v9a14.98 14.98 0 0 1-15 15z"/><path d="M9 29.5h0c6.1 0 9-4.9 9-11v-13H9v24zm49 0h0v16H46v-2c0-7.7 4.3-14 12-14z"/><path d="M58 29.5h0c-5 0-7 4-7 9v7h7v-16z"/><path d="M57 29.5h1v-24H43v9c0 8.3 5.7 15 14 15z"/><path d="M58 29.5h0c-6.1 0-9-4.9-9-11v-13h9v24z"/></g><path d="M28 57.5v-6c0-1.1.9-2 2-2m17.5 8v-6c0-1.1.9-2 2-2" stroke="#78909c" class="M"/></g></g><defs ><path id="B" d="M54.5 59.5h-12v-8c0-2.2 1.8-4 4-4h4c2.2 0 4 1.8 4 4v8z"/></defs></svg>