<svg xmlns="http://www.w3.org/2000/svg" viewBox="0 0 61 61"><style><![CDATA[.N{stroke-linejoin:round}.O{stroke-miterlimit:10}.P{fill:#455a64}.Q{stroke-linecap:round}.R{stroke:#424242}.S{fill:#546e7a}.T{fill:#cfd8dc}.U{fill:#b0bec5}]]></style><g class="N R"><path d="M25 41.8h-3.8v15H25c2.8 0 5-3.4 5-7.5s-2.2-7.5-5-7.5z" class="O S"/><ellipse cx="21.2" cy="49.2" rx="5" ry="7.5" class="P"/><path d="M13.5 41.8H9.8v15h3.8c2.8 0 5-3.4 5-7.5s-2.3-7.5-5.1-7.5zm39 0h-3.8v15h3.8c2.8 0 5-3.4 5-7.5s-2.2-7.5-5-7.5z" class="O S"/><ellipse cx="48.7" cy="49.2" rx="5" ry="7.5" class="P"/><path d="M41 41.8h-3.8v15H41c2.8 0 5-3.4 5-7.5s-2.2-7.5-5-7.5zm3-.6H19.5v-34c0-1.7 1.3-3 3-3H41c1.7 0 3 1.3 3 3v34z" class="O S"/><path d="M25 41.2h19v8H25z" class="O T"/><path d="M25 41.2H.5v-34c0-1.7 1.3-3 3-3H22c1.7 0 3 1.3 3 3v34z" class="O P"/></g><path d="M2.5,41.2v-34" fill="none" stroke="#546e7a" class="N O Q"/><g class="R N"><g class="T O"><path d="M5.2 14.2h15v15h-15z"/><path d="M5.2 14.2h3v15h-3zm12 0h3v15h-3z"/><path d="M5.2 18.2h3m9 0h3m-15 3.6h3m9 0h3m-15 3.4h3m9 0h3" class="Q"/></g><path d="M25 49.2H3.5c-1.7 0-3-1.3-3-3v-5H25v8z" class="O U"/><ellipse cx="9.8" cy="49.2" rx="5" ry="7.5" class="P"/></g><g fill="none" class="O Q N"><path d="M2.5,46.2v-5" stroke="#90a4ae"/><path d="M27,41.2v-34" stroke="#78909c"/><path d="M27,47.2v-6" stroke="#eceff1"/><path d="M42,41.2v-34" stroke="#455a64"/></g><g class="R N"><ellipse cx="9.8" cy="49.2" rx="2" ry="4" class="U"/><g class="O"><g fill="none"><path d="M25 41.2H.5v-34c0-1.7 1.3-3 3-3H22c1.7 0 3 1.3 3 3v34z"/><path d="M25 41.2h19v8H25z"/></g><path d="M57.5 49.2H30v-35h15.5a14.98 14.98 0 0 1 15 15v17c0 1.7-1.3 3-3 3z" fill="#ffa726"/><path d="M48,49.2H30v-35h3c8.3,0,15,6.7,15,15V49.2z" fill="#f57f17"/></g><ellipse cx="37.2" cy="49.2" rx="5" ry="7.5" class="P"/><ellipse cx="37.2" cy="49.2" rx="2" ry="4" class="U"/><path d="M34 33.2h26.5v-4c0-4.4-1.9-8.3-4.8-11H34v15z" class="O S"/></g><path d="M54.9 20.2c2.4 2.4 3.6 5.6 3.6 9v2" fill="none" stroke="#455a64" class="N O Q"/><path d="M34 33.2h14v-4c0-4.4-1.9-8.3-4.8-11H34v15z" class="N O P R"/><g fill="none" class="Q N O"><path d="M50,31.2v-2c0-3.2-0.9-6.3-2.6-9" stroke="#78909c"/><path d="M36,31.2v-11" stroke="#546e7a"/></g><g class="R N O"><path d="M52 41.2h-4v-4h1c1.7 0 3 1.3 3 3v1zm8.5 0h-4v-1c0-1.7 1.3-3 3-3h1v4z" class="T"/><path d="M34 37.2h4" fill="#90a4ae" class="Q"/><path d="M57.5 49.2H48v-4h12.5v1c0 1.7-1.3 3-3 3z" class="T"/><path d="M45 29.2h3v5h-3z" fill="#f57f17"/></g></svg>