<svg xmlns="http://www.w3.org/2000/svg" xmlns:xlink="http://www.w3.org/1999/xlink" viewBox="0 0 61 61"><style><![CDATA[.H{stroke-linejoin:round}.I{stroke:#424242}.J{stroke-miterlimit:10}.K{fill:#ffa726}.L{stroke-linecap:round}.M{stroke:#ffcc80}]]></style><g fill="#f57f17" class="H I J"><path d="M35.2 51.5h-11l-3.4-25h18z"/><use xlink:href="#B"/><path d="M38.8 54.5h-18c0-1.7 1.3-3 3-3h15v3z"/></g><use xlink:href="#C" fill="#455a64" class="H I J"/><path d="M39.2 51.5h-11l-3.4-25h18z" class="H I J K"/><g fill="none" class="L H J"><path d="M30,49.5l-2.9-21" class="M"/><path d="M40.5,28.5l-2.9,21" stroke="#f57f17"/></g><circle cx="31.8" cy="8.5" r="8" class="H I K"/><g class="J H"><path d="M25.8,8.5c0-3.3,2.7-6,6-6" fill="none" class="L M"/><use xlink:href="#B" x="4" class="I K"/><g fill="none" class="L"><path d="M24.2,28.9v-6.4c0-2.2,1.8-4,4-4" class="M"/><path d="M39.2,18.5c2.2,0,4,1.8,4,4v6.4" stroke="#f57f17"/></g><g class="I"><path d="M42.8 54.5h-18c0-1.7 1.3-3 3-3h12a3.01 3.01 0 0 1 3 3h0z" class="K"/><use xlink:href="#C" x="4" fill="#546e7a"/><path d="M56 6.9a3.06 3.06 0 0 1-2.2-2.2L52.7.4l-1.1 4.3a3.06 3.06 0 0 1-2.2 2.2L45.2 8l4.3 1.1a3.06 3.06 0 0 1 2.2 2.2l1.1 4.3 1.1-4.3a3.06 3.06 0 0 1 2.2-2.2L60.2 8 56 6.9zm-44.5 36a3.06 3.06 0 0 1-2.2-2.2l-1.1-4.3-1.1 4.3a3.06 3.06 0 0 1-2.2 2.2L.8 44 5 45.1a3.06 3.06 0 0 1 2.2 2.2l1.1 4.3 1.1-4.3a3.06 3.06 0 0 1 2.2-2.2l4.3-1.1-4.4-1.1z" fill="#cfd8dc"/><path d="M33.8 28.5v23" class="K L"/></g></g><defs ><path id="B" d="M37.1 31.7l-7.3-3.2-7.3 3.2c-2 .9-4.2-.6-4.2-2.8v-6.4a6.02 6.02 0 0 1 6-6h11a6.02 6.02 0 0 1 6 6v6.4c-.1 2.2-2.3 3.6-4.2 2.8z"/><path id="C" d="M40.8 60.5h-22c-1.7 0-3-1.3-3-3h0c0-1.7 1.3-3 3-3h22c1.7 0 3 1.3 3 3h0a3.01 3.01 0 0 1-3 3z"/></defs></svg>