<svg xmlns="http://www.w3.org/2000/svg" viewBox="0 0 61 61"><style><![CDATA[.I{stroke:#424242}.J{fill:#546e7a}.K{stroke-miterlimit:10}.L{stroke-linecap:round}.M{fill:#455a64}.N{fill:#ffa726}.O{fill:#cfd8dc}]]></style><g stroke-linejoin="round"><g class="K"><path d="M3 4.5h49v40H3z" class="I M"/><path d="M5,42.5v-36" fill="none" stroke="#546e7a" class="L"/><path d="M52.5 4.5h-50c-1.1 0-2-.9-2-2h0c0-1.1.9-2 2-2h50c1.1 0 2 .9 2 2h0c0 1.1-.9 2-2 2zm-52 40h54v7H.5z" class="I M"/><g class="J I"><path d="M9 4.5h49v40H9z"/><path d="M58.5 4.5h-50c-1.1 0-2-.9-2-2h0c0-1.1.9-2 2-2h50c1.1 0 2 .9 2 2h0c0 1.1-.9 2-2 2zm-52 40h54v7h-54z"/></g><path d="M.5 44.5h54v7H.5z" class="I M"/><path d="M6.5 44.5h54v7h-54zM21 .5h25v4H21z" class="J I"/><g fill="none" class="L"><path d="M11,42.5v-36" stroke="#78909c"/><path d="M56,42.5v-36" stroke="#455a64"/></g><path d="M52.5 44.5h-38L26 4.5h15z" class="I N"/><path d="M17.2,42.5l10.4-36" fill="none" stroke="#ffcc80" class="L"/><g class="I"><path d="M32.5 24.5h2v20h-2z" class="O"/><path d="M29.8 26.4v2c0 1.7-1.3 3-3 3h-.5c-1.4 0-2.5 1.1-2.5 2.5h0c0 1.4 1.1 2.5 2.5 2.5h0c1.4 0 2.5 1.1 2.5 2.5h0c0 1.4-1.1 2.5-2.5 2.5h-2c-1.7 0-3 1.3-3 3h0" class="L N"/><path d="M37.6 22.9L30.2 26c-.5.2-1.1 0-1.3-.5h0c-.2-.5 0-1.1.5-1.3l7.4-3.1c.5-.2 1.1 0 1.3.5h0c.2.5 0 1.1-.5 1.3z" class="O"/></g></g><circle transform="matrix(.9239 -.3827 .3827 .9239 -5.3872 16.1889)" cx="38" cy="21.6" r="3" class="I O"/><g class="K I"><path d="M36.9 18.9l2.2 5.5" class="L N"/><path d="M9.5 55.5h42v5h-42z" class="J"/></g><circle cx="14" cy="46.5" r="5" class="I J"/><path d="M14 51.5h0a4.95 4.95 0 0 0-5 5v4h10v-4a4.95 4.95 0 0 0-5-5z" class="I J K"/><circle cx="30.5" cy="46.5" r="5" class="I J"/><path d="M30.5 51.5h0a4.95 4.95 0 0 0-5 5v4h10v-4a4.95 4.95 0 0 0-5-5z" class="I J K"/><circle cx="47" cy="46.5" r="5" class="I J"/><path d="M47 51.5h0a4.95 4.95 0 0 0-5 5v4h10v-4a4.95 4.95 0 0 0-5-5z" class="I J K"/></g></svg>