<svg xmlns="http://www.w3.org/2000/svg" viewBox="0 0 61 61"><style><![CDATA[.M{stroke-linejoin:round}.N{stroke-miterlimit:10}.O{stroke-linecap:round}.P{stroke:#424242}.Q{fill:#546e7a}]]></style><g fill="#cfd8dc" class="M P"><circle cx="7" cy="32" r="6"/><path d="M39 60.5H25c-9.9 0-18-8.1-18-18v-27h50v27c0 9.9-8.1 18-18 18z" class="N"/></g><path d="M55 42.5c0 8.8-7.2 16-16 16" fill="none" stroke="#b0bec5" class="M N O"/><path d="M57,30.5l-38-15L19,32H7V15.5c0-8.3,6.7-15,15-15h20c8.3,0,15,6.7,15,15V30.5z" class="M N P Q"/><path d="M9,15.5c0-7.2,5.8-13,13-13" fill="none" stroke="#78909c" class="M N O"/><g class="P M N"><path d="M45,44.1c0,5.5-4.5,10-10,10s-10-4.5-10-10H45z" fill="#eceff1"/><path d="M13,25H3c-0.6,0-1-0.4-1-1v-2.5c0-0.6,0.4-1,1-1h10V25z" fill="#455a64"/><path d="M27.5 40.5H13c-1.7 0-3-1.3-3-3v-14c0-1.7 1.3-3 3-3h19c1.7 0 3 1.3 3 3v8c0 .6-.2 1.3-.6 1.8l-4.5 6a2.98 2.98 0 0 1-2.4 1.2z" class="Q"/><path d="M32,23.5v8l-4.5,6H13v-14H32" fill="#ec407a" class="O"/></g><path d="M15 25.5v10" fill="none" stroke="#f48fb1" class="M N O"/><g class="P M N"><path d="M42.5 40.5H57c1.7 0 3-1.3 3-3v-14c0-1.7-1.3-3-3-3H38c-1.7 0-3 1.3-3 3v8c0 .6.2 1.3.6 1.8l4.5 6a2.98 2.98 0 0 0 2.4 1.2z" class="Q"/><path d="M38 23.5h19v14H42.5l-4.5-6v-8" fill="#26c6da" class="O"/></g><g fill="none" class="M N O"><path d="M55 25.5v10" stroke="#00acc1"/><path d="M30 25.5v5" stroke="#d81b60"/><path d="M40 25.5v5" stroke="#80deea"/></g></svg>