<svg xmlns="http://www.w3.org/2000/svg" xmlns:xlink="http://www.w3.org/1999/xlink" viewBox="0 0 61 61"><style><![CDATA[.K{stroke-linejoin:round}.L{stroke-miterlimit:10}.M{stroke:#424242}.N{stroke-linecap:round}]]></style><g class="K L M"><path d="M26.5 47.5h5v13h-5z" fill="#fb8c00"/><use xlink:href="#B" fill="#455a64"/><path d="M29.5 47.5h5v13h-5z" fill="#ffa726"/><use xlink:href="#B" x="3" fill="#546e7a"/><path d="M27.2 39.5h-5c-5.5 0-10-4.5-10-10v-19c0-5.5 4.5-10 10-10h5c5.5 0 10 4.5 10 10v19c0 5.5-4.4 10-10 10z" fill="#b0bec5"/></g><path d="M17.8,36.1c-2.1-1.4-3.5-3.9-3.5-6.6v-19c0-4.4,3.6-8,8-8" fill="none" stroke="#cfd8dc" class="K L N"/><g class="M K L"><g fill="#90a4ae"><use xlink:href="#C"/><use xlink:href="#C" y="7.5"/><use xlink:href="#C" y="15"/></g><path d="M34.8 47.4h-7c-6.9 0-12.5-5.6-12.5-12.5v-14c0-1.4 1.1-2.5 2.5-2.5s2.5 1.1 2.5 2.5v14c0 4.1 3.4 7.5 7.5 7.5h7c4.1 0 7.5-3.4 7.5-7.5v-14c0-1.4 1.1-2.5 2.5-2.5s2.5 1.1 2.5 2.5v14c-.1 7-5.7 12.5-12.5 12.5z" fill="#546e7a"/><path d="M38.8 39.5h-5c-5.5 0-10-4.5-10-10v-19c0-5.5 4.5-10 10-10h5c5.5 0 10 4.5 10 10v19c0 5.5-4.5 10-10 10z" fill="#cfd8dc"/></g><g fill="none" class="N K L"><path d="M33.8,37.5c-4.4,0-8-3.6-8-8v-19c0-4.4,3.6-8,8-8" stroke="#eceff1"/><path d="M38.8,2.5c4.4,0,8,3.6,8,8v19c0,4.4-3.6,8-8,8" stroke="#b0bec5"/></g><g class="M K"><g fill="#b0bec5" class="L"><use xlink:href="#D"/><use xlink:href="#D" y="7.5"/><use xlink:href="#D" y="15"/><use xlink:href="#E"/><use xlink:href="#E" y="7.5"/><use xlink:href="#E" y="15"/></g><circle cx="17.8" cy="20.9" r="2.4" fill="#ffa726"/><circle cx="15.8" cy="20.9" r="2.4" fill="#fb8c00"/></g><defs ><path id="B" d="M39 58h0c0-1.4-1.1-2.5-2.5-2.5h-15c-1.4 0-2.5 1.1-2.5 2.5h0c0 1.4 1.1 2.5 2.5 2.5h15c1.4 0 2.5-1.1 2.5-2.5z"/><path id="C" d="M16.8 13.9h-4a1.54 1.54 0 0 1-1.5-1.5h0a1.54 1.54 0 0 1 1.5-1.5h4a1.54 1.54 0 0 1 1.5 1.5h0c-.1.9-.7 1.5-1.5 1.5z"/><path id="D" d="M33.2 13.9h-9a1.54 1.54 0 0 1-1.5-1.5h0a1.54 1.54 0 0 1 1.5-1.5h9a1.54 1.54 0 0 1 1.5 1.5h0c.1.9-.6 1.5-1.5 1.5z"/><path id="E" d="M48.2 13.9h-4a1.54 1.54 0 0 1-1.5-1.5h0a1.54 1.54 0 0 1 1.5-1.5h4a1.54 1.54 0 0 1 1.5 1.5h0c.1.9-.6 1.5-1.5 1.5z"/></defs></svg>