<svg xmlns="http://www.w3.org/2000/svg" viewBox="0 0 61 61"><style><![CDATA[.F{stroke-linejoin:round}.G{stroke-miterlimit:10}.H{stroke:#424242}.I{stroke-linecap:round}]]></style><g fill="#455a64" class="F G H"><path d="M25 45h9v7.5h-9z"/><path d="M37 55.5H22a1.54 1.54 0 0 1-1.5-1.5h0a1.54 1.54 0 0 1 1.5-1.5h15a1.54 1.54 0 0 1 1.5 1.5h0a1.54 1.54 0 0 1-1.5 1.5z"/></g><g fill="#546e7a" class="F G H"><path d="M39 55.5H24a1.54 1.54 0 0 1-1.5-1.5h0a1.54 1.54 0 0 1 1.5-1.5h15a1.54 1.54 0 0 1 1.5 1.5h0a1.54 1.54 0 0 1-1.5 1.5z"/><path d="M27 45h9v7.5h-9z"/><path d="M60.5 46.5l-11.7-.8a235.5 235.5 0 0 0-33.6 0l-11.7.8v-41l11.7.8a235.5 235.5 0 0 0 33.6 0l11.7-.8v41z"/></g><path d="M57.5 8.7v34.6l-8.5-.6a241.36 241.36 0 0 0-34 0l-8.5.6V8.7l8.5.6a241.36 241.36 0 0 0 34 0l8.5-.6" fill="#ffa726" class="F G H I"/><g fill="#546e7a" class="F G H"><path d="M29.2,34c-0.8,0-1.5-0.7-1.5-1.5v-13c0-0.8,0.7-1.5,1.5-1.5s1.5,0.7,1.5,1.5v13C30.7,33.3,30.1,34,29.2,34 z"/><path d="M29.2 29h-13c-.6 0-1.1-.3-1.4-.9-.2-.5-.2-1.1.2-1.6l6.5-8c.5-.6 1.5-.7 2.1-.2s.7 1.5.2 2.1L19.4 26h9.8a1.54 1.54 0 0 1 1.5 1.5 1.47 1.47 0 0 1-1.5 1.5zm8 5a1.54 1.54 0 0 1-1.5-1.5v-13a1.54 1.54 0 0 1 1.5-1.5 1.54 1.54 0 0 1 1.5 1.5v13a1.47 1.47 0 0 1-1.5 1.5z"/><path d="M47.7 34c-.3 0-.5-.1-.8-.2l-10.5-6.5c-.4-.3-.7-.8-.7-1.3s.3-1 .7-1.3L47 18.2c.7-.4 1.6-.2 2.1.5.4.7.2 1.6-.5 2.1L40.1 26l8.4 5.2c.7.4.9 1.4.5 2.1-.3.4-.7.7-1.3.7z"/></g><path d="M.5 5.5h3v41h-3z" fill="#455a64" class="F G H"/><g fill="none" class="I F G"><path d="M8.5,41.3V10.7" stroke="#ffcc80"/><path d="M55.5,41.3V10.7" stroke="#fb8c00"/></g></svg>