<svg xmlns="http://www.w3.org/2000/svg" viewBox="0 0 61 61"><style><![CDATA[.J{stroke-linejoin:round}.K{stroke-miterlimit:10}.L{stroke:#424242}.M{stroke-linecap:round}.N{fill:#cfd8dc}]]></style><g class="J K L"><path d="M53.5 58h-50c-1.7 0-3-1.3-3-3V6c0-1.7 1.3-3 3-3h50c1.7 0 3 1.3 3 3v49c0 1.7-1.3 3-3 3z" fill="#455a64"/><path d="M57.5 58h-50c-1.7 0-3-1.3-3-3V6c0-1.7 1.3-3 3-3h50c1.7 0 3 1.3 3 3v49c0 1.7-1.3 3-3 3z" fill="#546e7a"/></g><g fill="none" class="M J K"><path d="M6.5,55V6" stroke="#78909c"/><path d="M58.5,55V6" stroke="#455a64"/></g><g class="L J K"><g class="N"><path d="M17.5 55h-7a.94.94 0 0 1-1-1v-2a.94.94 0 0 1 1-1h7a.94.94 0 0 1 1 1v2a.94.94 0 0 1-1 1z"/><path d="M22.5 53h33" class="M"/></g><path d="M4.5 13h56v35.5h-56z" fill="#ec407a"/></g><g fill="none" class="M J K"><path d="M6.5 48.5V13" stroke="#f48fb1"/><path d="M58.5 48.5V13" stroke="#d81b60"/></g><g class="L J"><path d="M27 23.2l15 7.6-15 7.4z" class="K N"/><path d="M4.5 13h56v35.5h-56z" fill="none" class="K"/><circle cx="45" cy="53" r="2" class="N"/></g></svg>