<?xml version="1.0"?>
<svg id="appstore" xmlns="http://www.w3.org/2000/svg" width="134.986" height="39.996" viewBox="0 0 134.986 39.996">
  <path id="Path_4" data-name="Path 4" d="M136.763,37.945a3.831,3.831,0,0,1-3.836,3.831H7.4a3.836,3.836,0,0,1-3.841-3.831V7.4A3.841,3.841,0,0,1,7.4,3.561H132.926A3.835,3.835,0,0,1,136.762,7.4V37.945Z" transform="translate(-2.672 -2.671)" fill="#fff"/>
  <path id="Path_5" data-name="Path 5" d="M130.256,40H4.731A4.731,4.731,0,0,1,0,35.275V4.727A4.734,4.734,0,0,1,4.731,0H130.255a4.736,4.736,0,0,1,4.731,4.727V35.274A4.731,4.731,0,0,1,130.256,40Z" fill="#a6a6a6"/>
  <path id="Path_6" data-name="Path 6" d="M136.763,37.945a3.831,3.831,0,0,1-3.836,3.831H7.4a3.836,3.836,0,0,1-3.841-3.831V7.4A3.841,3.841,0,0,1,7.4,3.561H132.926A3.835,3.835,0,0,1,136.762,7.4V37.945Z" transform="translate(-2.672 -2.671)"/>
  <path id="Path_7" data-name="Path 7" d="M68.539,38.444A5.8,5.8,0,0,1,71.3,33.579a5.94,5.94,0,0,0-4.678-2.528c-1.968-.207-3.877,1.177-4.879,1.177-1.022,0-2.566-1.157-4.23-1.123a6.228,6.228,0,0,0-5.242,3.2c-2.267,3.924-.576,9.69,1.6,12.861,1.086,1.554,2.356,3.288,4.018,3.227,1.626-.066,2.233-1.035,4.195-1.035,1.944,0,2.514,1.035,4.209,1,1.745-.027,2.843-1.56,3.892-3.128a12.819,12.819,0,0,0,1.78-3.624A5.609,5.609,0,0,1,68.539,38.444Zm-3.2-9.48a5.706,5.706,0,0,0,1.307-4.09,5.815,5.815,0,0,0-3.76,1.944,5.43,5.43,0,0,0-1.341,3.939A4.8,4.8,0,0,0,65.338,28.965Z" transform="translate(-38.398 -18.657)" fill="#fff"/>
  <g id="Group_3" data-name="Group 3" transform="translate(42.449 18.002)">
    <path id="Path_9" data-name="Path 9" d="M181.052,85.523H178.78l-1.245-3.91h-4.326l-1.186,3.91h-2.212l4.287-13.31h2.647Zm-3.892-5.55L176.034,76.5q-.179-.533-.671-2.507h-.04q-.2.849-.632,2.507l-1.106,3.476Zm14.895.633a5.434,5.434,0,0,1-1.331,3.87,3.9,3.9,0,0,1-2.959,1.264,2.963,2.963,0,0,1-2.741-1.361v5.036H182.89V79.08q0-1.538-.079-3.155h1.876l.119,1.521h.04a3.8,3.8,0,0,1,6.074-.377,5.306,5.306,0,0,1,1.135,3.537Zm-2.173.078a3.956,3.956,0,0,0-.632-2.311,2.185,2.185,0,0,0-1.857-.947,2.218,2.218,0,0,0-1.432.523,2.426,2.426,0,0,0-.839,1.373,2.783,2.783,0,0,0-.1.649v1.6a2.567,2.567,0,0,0,.642,1.768,2.132,2.132,0,0,0,1.669.721,2.186,2.186,0,0,0,1.876-.928A4.084,4.084,0,0,0,189.882,80.684Zm13.215-.078a5.434,5.434,0,0,1-1.331,3.87,3.9,3.9,0,0,1-2.96,1.264,2.962,2.962,0,0,1-2.741-1.361v5.036h-2.133V79.08q0-1.538-.079-3.155h1.876l.119,1.521h.04a3.8,3.8,0,0,1,6.075-.377,5.312,5.312,0,0,1,1.134,3.537Zm-2.174.078a3.956,3.956,0,0,0-.633-2.311,2.182,2.182,0,0,0-1.855-.947,2.228,2.228,0,0,0-1.434.523,2.425,2.425,0,0,0-.838,1.373,2.851,2.851,0,0,0-.1.649v1.6a2.576,2.576,0,0,0,.641,1.768,2.137,2.137,0,0,0,1.671.721,2.184,2.184,0,0,0,1.876-.928A4.084,4.084,0,0,0,200.922,80.684Zm14.519,1.105a3.555,3.555,0,0,1-1.184,2.766,5.247,5.247,0,0,1-3.627,1.165,6.332,6.332,0,0,1-3.448-.829l.493-1.777a5.935,5.935,0,0,0,3.081.83,2.908,2.908,0,0,0,1.876-.543,1.774,1.774,0,0,0,.673-1.45,1.858,1.858,0,0,0-.554-1.363,5.138,5.138,0,0,0-1.837-1.026q-3.5-1.3-3.5-3.813a3.366,3.366,0,0,1,1.235-2.685,4.883,4.883,0,0,1,3.269-1.047,6.462,6.462,0,0,1,3.022.632l-.535,1.738a5.286,5.286,0,0,0-2.558-.612,2.6,2.6,0,0,0-1.765.553,1.583,1.583,0,0,0-.535,1.206,1.63,1.63,0,0,0,.613,1.3,6.909,6.909,0,0,0,1.935,1.026,6.56,6.56,0,0,1,2.528,1.618,3.372,3.372,0,0,1,.813,2.308Zm7.07-4.264h-2.351v4.66q0,1.778,1.245,1.776a3.748,3.748,0,0,0,.947-.1l.059,1.619a4.834,4.834,0,0,1-1.659.236,2.557,2.557,0,0,1-1.976-.771,3.781,3.781,0,0,1-.711-2.587V77.522h-1.4v-1.6h1.4V74.164l2.095-.632v2.389h2.351Zm10.587,3.12a5.264,5.264,0,0,1-1.265,3.634,4.508,4.508,0,0,1-3.516,1.461,4.3,4.3,0,0,1-3.368-1.4,5.1,5.1,0,0,1-1.255-3.535,5.222,5.222,0,0,1,1.294-3.653,4.485,4.485,0,0,1,3.488-1.422,4.388,4.388,0,0,1,3.4,1.4A5.038,5.038,0,0,1,233.1,80.645Zm-2.211.049a4.3,4.3,0,0,0-.571-2.264,2.111,2.111,0,0,0-1.917-1.143,2.142,2.142,0,0,0-1.956,1.143,4.368,4.368,0,0,0-.572,2.3A4.284,4.284,0,0,0,226.444,83a2.188,2.188,0,0,0,3.855-.019A4.314,4.314,0,0,0,230.888,80.694Zm9.147-2.894a3.712,3.712,0,0,0-.672-.059,2.013,2.013,0,0,0-1.739.85,3.2,3.2,0,0,0-.532,1.9v5.036h-2.133V78.948q0-1.511-.062-3.022h1.858l.078,1.836h.059a3.293,3.293,0,0,1,1.066-1.521,2.58,2.58,0,0,1,1.542-.514,3.427,3.427,0,0,1,.533.039Zm9.539,2.469a5,5,0,0,1-.078.967h-6.4a2.783,2.783,0,0,0,.928,2.174,3.175,3.175,0,0,0,2.093.67,7.079,7.079,0,0,0,2.589-.453l.334,1.479a8.007,8.007,0,0,1-3.218.593,4.666,4.666,0,0,1-3.508-1.312,4.851,4.851,0,0,1-1.274-3.525,5.5,5.5,0,0,1,1.187-3.613,4.088,4.088,0,0,1,3.356-1.539,3.578,3.578,0,0,1,3.142,1.539,5.179,5.179,0,0,1,.846,3.019Zm-2.034-.553a2.886,2.886,0,0,0-.414-1.639,1.863,1.863,0,0,0-1.7-.89,2.022,2.022,0,0,0-1.7.869,3.185,3.185,0,0,0-.631,1.658l4.442,0Z" transform="translate(-169.812 -72.016)" fill="#fff"/>
  </g>
  <g id="Group_4" data-name="Group 4" transform="translate(43.697 6.554)">
    <path id="Path_10" data-name="Path 10" d="M176.34,33.158a13.625,13.625,0,0,1-1.534-.078V26.645a11.613,11.613,0,0,1,1.806-.136c2.446,0,3.573,1.2,3.573,3.165C180.185,31.936,178.854,33.158,176.34,33.158Zm.358-5.824a4.28,4.28,0,0,0-.844.068v4.892a5.537,5.537,0,0,0,.708.029,2.318,2.318,0,0,0,2.515-2.62A2.134,2.134,0,0,0,176.7,27.334Zm7,5.873a2.245,2.245,0,0,1-2.272-2.426,2.3,2.3,0,0,1,2.35-2.494,2.228,2.228,0,0,1,2.272,2.417A2.311,2.311,0,0,1,183.7,33.207Zm.04-4.155c-.757,0-1.243.708-1.243,1.7,0,.971.5,1.679,1.233,1.679s1.233-.757,1.233-1.7C184.958,29.771,184.473,29.053,183.735,29.053Zm10.172-.669L192.431,33.1h-.961l-.611-2.048a15.529,15.529,0,0,1-.379-1.523h-.02a10.209,10.209,0,0,1-.378,1.523l-.65,2.048h-.971l-1.389-4.717h1.077l.534,2.242q.189.8.32,1.514h.02a15.529,15.529,0,0,1,.388-1.5l.67-2.251h.854l.641,2.2c.155.534.281,1.058.379,1.553h.028a13.57,13.57,0,0,1,.32-1.553l.573-2.2h1.029Zm5.432,4.717h-1.048V30.392c0-.834-.32-1.252-.951-1.252a1.089,1.089,0,0,0-1.048,1.155V33.1h-1.048V29.732c0-.417-.01-.864-.039-1.349h.922l.049.728h.029a1.7,1.7,0,0,1,1.5-.824c.99,0,1.641.757,1.641,1.989V33.1Zm2.891,0h-1.049V26.219h1.049Zm3.823.107a2.246,2.246,0,0,1-2.272-2.426,2.3,2.3,0,0,1,2.349-2.494A2.227,2.227,0,0,1,208.4,30.7,2.31,2.31,0,0,1,206.053,33.207Zm.039-4.155c-.757,0-1.243.708-1.243,1.7,0,.971.5,1.679,1.232,1.679s1.233-.757,1.233-1.7C207.315,29.771,206.831,29.053,206.092,29.053Zm6.444,4.048-.076-.543h-.028a1.611,1.611,0,0,1-1.38.65,1.372,1.372,0,0,1-1.446-1.388c0-1.164,1.009-1.766,2.757-1.766v-.087c0-.621-.329-.932-.979-.932a2.208,2.208,0,0,0-1.233.35l-.213-.689a3.016,3.016,0,0,1,1.62-.408c1.233,0,1.855.65,1.855,1.951v1.737a7.124,7.124,0,0,0,.068,1.126Zm-.144-2.349c-1.165,0-1.749.282-1.749.951a.668.668,0,0,0,.719.737,1,1,0,0,0,1.029-.96ZM218.5,33.1l-.049-.757h-.029a1.582,1.582,0,0,1-1.515.864,2.15,2.15,0,0,1-1.98-2.407A2.238,2.238,0,0,1,217,28.286a1.418,1.418,0,0,1,1.331.641h.021V26.219H219.4v5.61c0,.456.011.883.039,1.271H218.5Zm-.155-2.775a1.141,1.141,0,0,0-1.1-1.223c-.777,0-1.253.689-1.253,1.659,0,.951.493,1.6,1.232,1.6a1.177,1.177,0,0,0,1.126-1.252v-.786Zm7.7,2.883a2.245,2.245,0,0,1-2.271-2.426,2.3,2.3,0,0,1,2.349-2.494A2.227,2.227,0,0,1,228.4,30.7a2.31,2.31,0,0,1-2.35,2.5Zm.039-4.155c-.756,0-1.242.708-1.242,1.7,0,.971.5,1.679,1.232,1.679s1.233-.757,1.233-1.7C227.317,29.771,226.831,29.053,226.092,29.053Zm7.949,4.048h-1.049V30.392c0-.834-.32-1.252-.951-1.252a1.088,1.088,0,0,0-1.047,1.155V33.1h-1.049V29.732c0-.417-.01-.864-.039-1.349h.922l.049.728h.029a1.694,1.694,0,0,1,1.495-.825c.99,0,1.642.757,1.642,1.989ZM241.1,29.17h-1.154v2.29c0,.583.2.874.61.874a2.066,2.066,0,0,0,.465-.049l.029.8a2.323,2.323,0,0,1-.813.117c-.826,0-1.321-.456-1.321-1.65V29.17h-.688v-.786h.688v-.864l1.029-.311v1.174H241.1v.787Zm5.55,3.931H245.6V30.412c0-.844-.319-1.271-.951-1.271a1.028,1.028,0,0,0-1.049,1.116V33.1H242.55V26.219H243.6v2.834h.021a1.591,1.591,0,0,1,1.419-.767c1,0,1.609.776,1.609,2.009Zm5.687-2.106h-3.146a1.354,1.354,0,0,0,1.487,1.4,3.544,3.544,0,0,0,1.272-.223l.163.728a3.939,3.939,0,0,1-1.583.291,2.19,2.19,0,0,1-2.349-2.377,2.3,2.3,0,0,1,2.231-2.533,1.981,1.981,0,0,1,1.962,2.242,2.02,2.02,0,0,1-.036.475Zm-.961-.747c0-.728-.367-1.242-1.037-1.242a1.244,1.244,0,0,0-1.147,1.242Z" transform="translate(-174.806 -26.219)" fill="#fff"/>
  </g>
</svg>
