<svg xmlns="http://www.w3.org/2000/svg" width="120.947" height="101.75" viewBox="0 0 120.947 101.75">
  <g id="direction" transform="translate(0 -40.634)">
    <g id="Group_21" data-name="Group 21" transform="translate(0 40.634)">
      <path id="Path_13" data-name="Path 13" d="M118.421,84.587,77.2,43.362a9.515,9.515,0,0,0-13.338,0L55.371,51.85a9.537,9.537,0,0,0-2.829,6.467,8.042,8.042,0,0,0,2.829,6.467L66.688,76.1H9.7A9.835,9.835,0,0,0,0,85.8V97.52c0,4.85,4.446,8.892,9.7,8.892H66.284L55.371,117.325a9.75,9.75,0,0,0-2.829,6.871,9.466,9.466,0,0,0,2.829,6.871l8.488,8.488a9.538,9.538,0,0,0,6.467,2.829,8.042,8.042,0,0,0,6.467-2.829l41.225-41.225a9.466,9.466,0,0,0,2.829-6.871A7.75,7.75,0,0,0,118.421,84.587Zm-5.658,8.083L71.538,133.9c-.808.808-1.212.808-2.021,0l-8.488-8.488a2.02,2.02,0,0,1,0-2.425L78.813,105.2a3.69,3.69,0,0,0,.808-4.446,3.884,3.884,0,0,0-3.637-2.425H9.7c-.808,0-1.617-.4-1.617-.808V85.8A1.739,1.739,0,0,1,9.7,84.183H76.792a3.534,3.534,0,0,0,3.637-2.425c.4-1.617.4-3.233-.808-4.446L61.434,59.125a1.252,1.252,0,0,1-.4-.808c0-.4,0-.4.4-.808l8.488-8.487a1.333,1.333,0,0,1,2.021,0l41.225,41.225a1.485,1.485,0,0,1,.4,1.212C113.167,91.862,113.167,92.267,112.763,92.671Z" transform="translate(0 -40.634)" fill="#3C1E54"/>
    </g>
  </g>
</svg>
