<?xml version="1.0"?>
<svg xmlns="http://www.w3.org/2000/svg" width="48.017" height="53.961" viewBox="0 0 48.017 53.961">
  <g id="hand-holding-a-phone-to-take-a-selfie-pic" transform="translate(-26.721)">
    <g id="Group_3" data-name="Group 3" transform="translate(26.721)">
      <path id="Path_10" data-name="Path 10" d="M148.593,137.825l-.162.349c-.3-.49-.712-1.234-1.178-2.069a78.379,78.379,0,0,0-4.977-8.094l-.038-.049c-1.853-2.293-3.912-3.407-6.293-3.407a8.584,8.584,0,0,0-2.422.369c-2.82.831-3.255,2.613-3.311,3.338-.11,1.4.967,4.03,3.847,5.392l0,2.086c1.431-.384,3.186-1.153,3.326-2.3a2.2,2.2,0,0,0-1.237-2.273c-2.567-1.218-3.038-2.289-3-2.677.181-1.73,3.815-2.347,6.772,1.3a76.5,76.5,0,0,1,4.753,7.75c.411.737.767,1.374,1.063,1.877L137.3,157.632a8.541,8.541,0,0,0-2.293-.327c-.458,0-.878.038-1.286.075-.449.04-.913.082-1.508.082-.4,0-.808-.018-1.261-.055-2.689-.22-7-2.318-8.975-3.433a1.747,1.747,0,0,1-.885-2.131h-2.98a4.555,4.555,0,0,0,2.2,4.569l.064.046.068.039c.632.36,6.288,3.524,10.264,3.85.534.044,1.025.065,1.5.065.728,0,1.283-.05,1.777-.095.372-.034.693-.063,1.017-.063a7,7,0,0,1,2.556.559l.288.114-.151.325,7.336,3.411,10.893-23.428Z" transform="translate(-107.912 -110.704)" fill="#ffde0a"/>
      <path id="Path_11" data-name="Path 11" d="M51.5,35.479V24.322l-.792-.557a8.49,8.49,0,0,1-2.133-1.789V32.256H29.646V7.436H48.572v6.909a6.857,6.857,0,0,1,2.5-1.282c.141-.041.281-.079.421-.114V4.214A4.214,4.214,0,0,0,47.283,0H30.935a4.214,4.214,0,0,0-4.214,4.214V35.478a4.214,4.214,0,0,0,4.214,4.214H47.283A4.214,4.214,0,0,0,51.5,35.479Zm-5.7-31.592a.9.9,0,1,1-.9.9A.9.9,0,0,1,45.794,3.887Zm-10.6.17H43.02V5.532H35.2V4.056Zm3.911,32.391a1.574,1.574,0,1,1,1.574-1.574A1.574,1.574,0,0,1,39.109,36.448Z" transform="translate(-26.721)" fill="#ffde0a"/>
    </g>
  </g>
</svg>
