<?xml version="1.0"?>
<svg xmlns="http://www.w3.org/2000/svg" xmlns:xlink="http://www.w3.org/1999/xlink" width="59.997" height="60" viewBox="0 0 59.997 60">
  <defs>
    <clipPath id="clip-path">
      <path id="Path_6" data-name="Path 6" d="M59.661.343A1.173,1.173,0,0,0,58.833,0H30.008a1.172,1.172,0,0,0-1.172,1.172V4.52L17.729,7.5A1.172,1.172,0,0,0,16.9,8.931l5.757,21.485-4.98,4.98a3.516,3.516,0,0,0-2.9-1.534H3.523A3.516,3.516,0,0,0,.007,37.378V56.484A3.516,3.516,0,0,0,3.523,60H14.772a3.516,3.516,0,0,0,3.411-2.669l1.394,1.215A5.9,5.9,0,0,0,23.459,60H58.833A1.172,1.172,0,0,0,60,58.828V1.172a1.173,1.173,0,0,0-.343-.829ZM15.945,56.484a1.173,1.173,0,0,1-1.172,1.172H3.523a1.173,1.173,0,0,1-1.172-1.172v-19.1a1.173,1.173,0,0,1,1.172-1.172H7.975v13.5a1.172,1.172,0,1,0,2.344,0v-13.5h4.453a1.173,1.173,0,0,1,1.172,1.172v19.1ZM19.461,9.461,28.83,6.95v4.343l-.785.211a1.172,1.172,0,0,0-.829,1.435A3.159,3.159,0,0,1,24.986,16.8a1.172,1.172,0,0,0-.827,1.438l4.571,16.917H26.377l-1.212-4.741a1.17,1.17,0,0,0-.2-.411Zm9.37,7.206v9.888L26.7,18.645a5.49,5.49,0,0,0,2.138-1.978ZM45.67,57.655H23.459a3.561,3.561,0,0,1-2.341-.879l-2.83-2.469V38.1L23.4,32.987l.928,3.63a1.172,1.172,0,0,0,1.13.879H48.506a1.641,1.641,0,1,1,0,3.281H36.7a1.172,1.172,0,0,0,0,2.344H52.174a1.641,1.641,0,0,1,0,3.281H36.7a1.172,1.172,0,1,0,0,2.344H49.666a1.641,1.641,0,0,1,0,3.281H36.7a1.172,1.172,0,1,0,0,2.344H45.67a1.641,1.641,0,0,1,0,3.281Zm11.991,0H49.3a3.97,3.97,0,0,0,0-3.281h.368a3.982,3.982,0,0,0,3.561-5.767,3.98,3.98,0,0,0,2.143-6.215V27.54a1.172,1.172,0,1,0-2.344,0V40.875a3.985,3.985,0,0,0-.854-.093h-.039a3.982,3.982,0,0,0-3.628-5.624H46.623a5.608,5.608,0,1,0-4.406,0h-6.4V12.874a5.516,5.516,0,0,0,4.2-4.2h8.815a5.516,5.516,0,0,0,4.2,4.2v3.641a1.172,1.172,0,1,0,2.344,0V11.828A1.172,1.172,0,0,0,54.2,10.657,3.159,3.159,0,0,1,51.048,7.5,1.172,1.172,0,0,0,49.876,6.33H38.966A1.172,1.172,0,0,0,37.794,7.5a3.159,3.159,0,0,1-3.155,3.155,1.172,1.172,0,0,0-1.172,1.172v23.33h-2.29V2.346H57.661ZM44.419,33.265A3.265,3.265,0,1,1,47.684,30,3.265,3.265,0,0,1,44.419,33.265Z" transform="translate(-0.007 0)" stroke="#f91164" stroke-linejoin="bevel" stroke-width="4"/>
    </clipPath>
  </defs>
  <g id="Group_18" data-name="Group 18" transform="translate(-1697 561)">
    <g id="Group_17" data-name="Group 17" transform="translate(1697 -561)">
      <g id="_001-money" data-name="001-money" transform="translate(0)">
        <g id="Group_12" data-name="Group 12" transform="translate(7.977 52.969)">
          <g id="Group_11" data-name="Group 11" transform="translate(0 0)">
            <path id="Path_9" data-name="Path 9" d="M70.007,452.344a1.17,1.17,0,1,0,.344.829,1.17,1.17,0,0,0-.344-.829Z" transform="translate(-68.01 -452.002)"/>
          </g>
        </g>
        <g id="Group_14" data-name="Group 14" transform="translate(53.027 21.097)">
          <g id="Group_13" data-name="Group 13" transform="translate(0 0)">
            <path id="Path_10" data-name="Path 10" d="M454.453,180.35a1.169,1.169,0,1,0,.344.829,1.169,1.169,0,0,0-.344-.829Z" transform="translate(-452.459 -180.01)"/>
          </g>
        </g>
        <g id="Group_16" data-name="Group 16" transform="translate(0)">
          <g id="Group_15" data-name="Group 15">
            <path id="Path_11" data-name="Path 11" d="M59.661.343A1.173,1.173,0,0,0,58.833,0H30.008a1.172,1.172,0,0,0-1.172,1.172V4.52L17.729,7.5A1.172,1.172,0,0,0,16.9,8.931l5.757,21.485-4.98,4.98a3.516,3.516,0,0,0-2.9-1.534H3.523A3.516,3.516,0,0,0,.007,37.378V56.484A3.516,3.516,0,0,0,3.523,60H14.772a3.516,3.516,0,0,0,3.411-2.669l1.394,1.215A5.9,5.9,0,0,0,23.459,60H58.833A1.172,1.172,0,0,0,60,58.828V1.172a1.173,1.173,0,0,0-.343-.829ZM15.945,56.484a1.173,1.173,0,0,1-1.172,1.172H3.523a1.173,1.173,0,0,1-1.172-1.172v-19.1a1.173,1.173,0,0,1,1.172-1.172H7.975v13.5a1.172,1.172,0,1,0,2.344,0v-13.5h4.453a1.173,1.173,0,0,1,1.172,1.172v19.1ZM19.461,9.461,28.83,6.95v4.343l-.785.211a1.172,1.172,0,0,0-.829,1.435A3.159,3.159,0,0,1,24.986,16.8a1.172,1.172,0,0,0-.827,1.438l4.571,16.917H26.377l-1.212-4.741a1.17,1.17,0,0,0-.2-.411Zm9.37,7.206v9.888L26.7,18.645a5.49,5.49,0,0,0,2.138-1.978ZM45.67,57.655H23.459a3.561,3.561,0,0,1-2.341-.879l-2.83-2.469V38.1L23.4,32.987l.928,3.63a1.172,1.172,0,0,0,1.13.879H48.506a1.641,1.641,0,1,1,0,3.281H36.7a1.172,1.172,0,0,0,0,2.344H52.174a1.641,1.641,0,0,1,0,3.281H36.7a1.172,1.172,0,1,0,0,2.344H49.666a1.641,1.641,0,0,1,0,3.281H36.7a1.172,1.172,0,1,0,0,2.344H45.67a1.641,1.641,0,0,1,0,3.281Zm11.991,0H49.3a3.97,3.97,0,0,0,0-3.281h.368a3.982,3.982,0,0,0,3.561-5.767,3.98,3.98,0,0,0,2.143-6.215V27.54a1.172,1.172,0,1,0-2.344,0V40.875a3.985,3.985,0,0,0-.854-.093h-.039a3.982,3.982,0,0,0-3.628-5.624H46.623a5.608,5.608,0,1,0-4.406,0h-6.4V12.874a5.516,5.516,0,0,0,4.2-4.2h8.815a5.516,5.516,0,0,0,4.2,4.2v3.641a1.172,1.172,0,1,0,2.344,0V11.828A1.172,1.172,0,0,0,54.2,10.657,3.159,3.159,0,0,1,51.048,7.5,1.172,1.172,0,0,0,49.876,6.33H38.966A1.172,1.172,0,0,0,37.794,7.5a3.159,3.159,0,0,1-3.155,3.155,1.172,1.172,0,0,0-1.172,1.172v23.33h-2.29V2.346H57.661ZM44.419,33.265A3.265,3.265,0,1,1,47.684,30,3.265,3.265,0,0,1,44.419,33.265Z" transform="translate(-0.007 0)"/>
          </g>
        </g>
      </g>
      <g id="Mask_Group_3" data-name="Mask Group 3" transform="translate(0)" clip-path="url(#clip-path)">
        <path id="Rectangle_3" data-name="Rectangle 3" d="M0,0H15V13.977l-.531.175H2.232L0,13.977Z" transform="translate(38 21)" fill="#f91164"/>
      </g>
    </g>
  </g>
</svg>
