<?xml version="1.0"?>
<svg xmlns="http://www.w3.org/2000/svg" xmlns:xlink="http://www.w3.org/1999/xlink" width="39.997" height="60.004" viewBox="0 0 39.997 60.004">
  <defs>
    <clipPath id="clip-path">
      <path id="Shape" d="M36,26.953H33V25.111l3.478-1.44a4,4,0,1,0-2.956-7.441L33,16.437V4a4,4,0,0,0-4-4H10A4,4,0,0,0,6,4v19.97A6.136,6.136,0,0,0,.234,30.153a89.792,89.792,0,0,1-.05,9.188c-.109,2-.244,4.5-.155,5.687a7.958,7.958,0,0,0,1.79,4.943c1.024,1.464.843,1.281,1.671,2.54C5.153,55.04,5,55.4,5,57a3,3,0,0,0,3,3H20a3,3,0,0,0,3-3V54.955a.994.994,0,0,1,.5-.864,15.367,15.367,0,0,0,5.043-4.137h.458a4,4,0,0,0,3.862-3.013c.047,0,.091.014.138.014h1.03a3.985,3.985,0,0,0,3.026-6.585,3.952,3.952,0,0,0,.979-5.989,3.992,3.992,0,0,0-2.035-7.426Zm0,2a2,2,0,1,1,0,4H33a2,2,0,1,1,0-4Zm-1,10H33a2,2,0,1,1,0-4h2a2,2,0,1,1,0,4Zm-.745-20.861a2,2,0,1,1,1.469,3.727L33,22.949V18.594ZM15.237,4a.993.993,0,0,1-.894-.553L13.618,2H25.383l-.724,1.447A.993.993,0,0,1,23.765,4Zm7.285,48.35a3,3,0,0,0-1.52,2.6V57a1,1,0,0,1-1,1H8a1,1,0,0,1-1-1V56c0-2.147-1.389-3.829-2.356-5.4-1.777-2.881-2.4-2.823-2.621-5.728-.116-1.559.223-6.084.268-7.733.025-1-.028-4.668-.057-7.016a4.148,4.148,0,0,1,4.122-4.177c2.293,0,3.058,1.44,5.373,2.1a29.555,29.555,0,0,0,4.4.859.978.978,0,0,1,.873.958v.167c-.007.349-.206,3.4-5,3.4a.474.474,0,0,0-.184.019c-.765.063-4.263-.649-4.918-1.966a1,1,0,1,0-1.79.9A3.631,3.631,0,0,0,6,33.492V45.953a4,4,0,0,0,4,4H25.867a17.277,17.277,0,0,1-3.346,2.4Zm1.4-35.332L21.54,16c.441-.449.874-.927,1.292-1.446A5.05,5.05,0,0,1,23.921,17.019Zm-8.9.711c.159-3.714,3.377-5.584,6.214-4.377a12.086,12.086,0,0,1-6.211,4.377Zm4.871-.256,4.022,1.719c-.876,6.251-7.488,6.434-8.731.565a11.863,11.863,0,0,0,4.71-2.284ZM26,32.8V38H24V34a1,1,0,0,0-2,0v4H17c0-4.958,0-3.87-.009-4.043A5.475,5.475,0,0,0,19,29.87a2.984,2.984,0,0,0-2.783-2.963A6.545,6.545,0,0,1,26,32.8ZM13,38V35.39a8.941,8.941,0,0,0,2-.383V38Zm16,9.951H10a2,2,0,0,1-2-2v-11.3a12.2,12.2,0,0,0,3,.75v2.6a2,2,0,0,0,2,2H26a2,2,0,0,0,2-2V32.8a8.9,8.9,0,0,0-4.974-8,8.526,8.526,0,0,0,2.953-6.235v-.015a7.175,7.175,0,0,0-2.672-6.306C19.056,9.168,13,12,13,18a8.746,8.746,0,0,0,2.943,6.78,8.408,8.408,0,0,0-2.375,1.667c-.422-.093-.857-.2-1.294-.323-1.616-.461-2.4-1.515-4.274-1.981V4a2,2,0,0,1,2-2h1.382l1.171,2.342A2.986,2.986,0,0,0,15.237,6h8.528a2.986,2.986,0,0,0,2.683-1.659L27.619,2h1.386a2,2,0,0,1,2,2v23.5a3.958,3.958,0,0,0-.618,6.445,3.964,3.964,0,0,0-.009,6.009,3.96,3.96,0,0,0,.583,6.411,2,2,0,0,1-1.954,1.584Zm5.03-3H33a2,2,0,1,1,0-4h1.03a2,2,0,1,1,0,4Z" transform="translate(0)"/>
    </clipPath>
  </defs>
  <g id="Group_20" data-name="Group 20" transform="translate(-751 631)">
    <path id="Shape-2" data-name="Shape" d="M36,26.953H33V25.111l3.478-1.44a4,4,0,1,0-2.956-7.441L33,16.437V4a4,4,0,0,0-4-4H10A4,4,0,0,0,6,4v19.97A6.136,6.136,0,0,0,.234,30.153a89.792,89.792,0,0,1-.05,9.188c-.109,2-.244,4.5-.155,5.687a7.958,7.958,0,0,0,1.79,4.943c1.024,1.464.843,1.281,1.671,2.54C5.153,55.04,5,55.4,5,57a3,3,0,0,0,3,3H20a3,3,0,0,0,3-3V54.955a.994.994,0,0,1,.5-.864,15.367,15.367,0,0,0,5.043-4.137h.458a4,4,0,0,0,3.862-3.013c.047,0,.091.014.138.014h1.03a3.985,3.985,0,0,0,3.026-6.585,3.952,3.952,0,0,0,.979-5.989,3.992,3.992,0,0,0-2.035-7.426Zm0,2a2,2,0,1,1,0,4H33a2,2,0,1,1,0-4Zm-1,10H33a2,2,0,1,1,0-4h2a2,2,0,1,1,0,4Zm-.745-20.861a2,2,0,1,1,1.469,3.727L33,22.949V18.594ZM15.237,4a.993.993,0,0,1-.894-.553L13.618,2H25.383l-.724,1.447A.993.993,0,0,1,23.765,4Zm7.285,48.35a3,3,0,0,0-1.52,2.6V57a1,1,0,0,1-1,1H8a1,1,0,0,1-1-1V56c0-2.147-1.389-3.829-2.356-5.4-1.777-2.881-2.4-2.823-2.621-5.728-.116-1.559.223-6.084.268-7.733.025-1-.028-4.668-.057-7.016a4.148,4.148,0,0,1,4.122-4.177c2.293,0,3.058,1.44,5.373,2.1a29.555,29.555,0,0,0,4.4.859.978.978,0,0,1,.873.958v.167c-.007.349-.206,3.4-5,3.4a.474.474,0,0,0-.184.019c-.765.063-4.263-.649-4.918-1.966a1,1,0,1,0-1.79.9A3.631,3.631,0,0,0,6,33.492V45.953a4,4,0,0,0,4,4H25.867a17.277,17.277,0,0,1-3.346,2.4Zm1.4-35.332L21.54,16c.441-.449.874-.927,1.292-1.446A5.05,5.05,0,0,1,23.921,17.019Zm-8.9.711c.159-3.714,3.377-5.584,6.214-4.377a12.086,12.086,0,0,1-6.211,4.377Zm4.871-.256,4.022,1.719c-.876,6.251-7.488,6.434-8.731.565a11.863,11.863,0,0,0,4.71-2.284ZM26,32.8V38H24V34a1,1,0,0,0-2,0v4H17c0-4.958,0-3.87-.009-4.043A5.475,5.475,0,0,0,19,29.87a2.984,2.984,0,0,0-2.783-2.963A6.545,6.545,0,0,1,26,32.8ZM13,38V35.39a8.941,8.941,0,0,0,2-.383V38Zm16,9.951H10a2,2,0,0,1-2-2v-11.3a12.2,12.2,0,0,0,3,.75v2.6a2,2,0,0,0,2,2H26a2,2,0,0,0,2-2V32.8a8.9,8.9,0,0,0-4.974-8,8.526,8.526,0,0,0,2.953-6.235v-.015a7.175,7.175,0,0,0-2.672-6.306C19.056,9.168,13,12,13,18a8.746,8.746,0,0,0,2.943,6.78,8.408,8.408,0,0,0-2.375,1.667c-.422-.093-.857-.2-1.294-.323-1.616-.461-2.4-1.515-4.274-1.981V4a2,2,0,0,1,2-2h1.382l1.171,2.342A2.986,2.986,0,0,0,15.237,6h8.528a2.986,2.986,0,0,0,2.683-1.659L27.619,2h1.386a2,2,0,0,1,2,2v23.5a3.958,3.958,0,0,0-.618,6.445,3.964,3.964,0,0,0-.009,6.009,3.96,3.96,0,0,0,.583,6.411,2,2,0,0,1-1.954,1.584Zm5.03-3H33a2,2,0,1,1,0-4h1.03a2,2,0,1,1,0,4Z" transform="translate(751 -631)"/>
    <g id="Group_19" data-name="Group 19" transform="translate(751 -631)">
      <g id="Mask_Group_4" data-name="Mask Group 4" transform="translate(0)" clip-path="url(#clip-path)">
        <path id="Path_12" data-name="Path 12" d="M774.743-618.709c-4.286-.373-6.841-.227-8.278,2.182s-1.863,1.956-1.534,6.615a23.841,23.841,0,0,0,1.534,7.366s.809.122,3.084.528a15.163,15.163,0,0,1,4.96,2.334l-2.306,3.712-2.068,1-2.06,1.035a9.147,9.147,0,0,1-1.87.364,18.118,18.118,0,0,0-2.126,0l-.328,3.519,3.036,2.347,14.463-.594.488-4.374v-6.462l-2.681-18.712Z" transform="translate(-753.123 628.979)" fill="#f91164"/>
      </g>
      <path id="Shape-3" data-name="Shape" d="M25,44H14a1,1,0,1,0,0,2H25a1,1,0,1,0,0-2Z" transform="translate(0.001 0.003)"/>
    </g>
  </g>
</svg>
