<?xml version="1.0"?><svg fill="#baa173" xmlns="http://www.w3.org/2000/svg" viewBox="0 0 80 80" width="50px" height="50px">    <path d="M 25 8 C 22.250484 8 20 10.250484 20 13 L 20 67 C 20 69.749516 22.250484 72 25 72 L 55 72 C 57.749516 72 60 69.749516 60 67 L 60 54 L 58 54 L 58 60 L 22 60 L 22 18 L 58 18 L 58 26 L 60 26 L 60 13 C 60 10.250484 57.749516 8 55 8 L 25 8 z M 25 10 L 55 10 C 56.668484 10 58 11.331516 58 13 L 58 16 L 22 16 L 22 13 C 22 11.331516 23.331516 10 25 10 z M 31.947266 12 A 1 1 0 0 0 30.947266 13 A 1 1 0 0 0 31.947266 14 A 1 1 0 0 0 32.947266 13 A 1 1 0 0 0 31.947266 12 z M 36 12 A 1.0001 1.0001 0 1 0 36 14 L 44 14 A 1.0001 1.0001 0 1 0 44 12 L 36 12 z M 26 20 A 1 1 0 0 0 25 21 A 1 1 0 0 0 26 22 A 1 1 0 0 0 27 21 A 1 1 0 0 0 26 20 z M 26 24 A 1 1 0 0 0 25 25 A 1 1 0 0 0 26 26 A 1 1 0 0 0 27 25 A 1 1 0 0 0 26 24 z M 26 28 A 1 1 0 0 0 25 29 A 1 1 0 0 0 26 30 A 1 1 0 0 0 27 29 A 1 1 0 0 0 26 28 z M 44 29 L 44 30 L 44 51 L 74 51 L 74 29 L 44 29 z M 46 31 L 72 31 L 72 32.261719 L 59.841797 40.736328 C 59.333375 41.090846 58.668578 41.090846 58.160156 40.736328 L 46 32.261719 L 46 31 z M 26 32 A 1 1 0 0 0 25 33 A 1 1 0 0 0 26 34 A 1 1 0 0 0 27 33 A 1 1 0 0 0 26 32 z M 46 34.699219 L 57.015625 42.376953 C 58.205203 43.206435 59.794797 43.206435 60.984375 42.376953 L 72 34.699219 L 72 49 L 46 49 L 46 34.699219 z M 26 36 A 1 1 0 0 0 25 37 A 1 1 0 0 0 26 38 A 1 1 0 0 0 27 37 A 1 1 0 0 0 26 36 z M 26 40 A 1 1 0 0 0 25 41 A 1 1 0 0 0 26 42 A 1 1 0 0 0 27 41 A 1 1 0 0 0 26 40 z M 26 44 A 1 1 0 0 0 25 45 A 1 1 0 0 0 26 46 A 1 1 0 0 0 27 45 A 1 1 0 0 0 26 44 z M 26 48 A 1 1 0 0 0 25 49 A 1 1 0 0 0 26 50 A 1 1 0 0 0 27 49 A 1 1 0 0 0 26 48 z M 26 52 A 1 1 0 0 0 25 53 A 1 1 0 0 0 26 54 A 1 1 0 0 0 27 53 A 1 1 0 0 0 26 52 z M 26 56 A 1 1 0 0 0 25 57 A 1 1 0 0 0 26 58 A 1 1 0 0 0 27 57 A 1 1 0 0 0 26 56 z M 22 62 L 58 62 L 58 67 C 58 68.668484 56.668484 70 55 70 L 25 70 C 23.331516 70 22 68.668484 22 67 L 22 62 z M 40 64 A 2 2 0 0 0 38 66 A 2 2 0 0 0 40 68 A 2 2 0 0 0 42 66 A 2 2 0 0 0 40 64 z"/></svg>