<?xml version="1.0"?>
<svg xmlns="http://www.w3.org/2000/svg" width="49.413" height="60.004" viewBox="0 0 49.413 60.004">
  <g id="_003-fan" data-name="003-fan" transform="translate(-42.015 -0.002)">
    <g id="Group_10" data-name="Group 10" transform="translate(42.015 0.002)">
      <g id="Group_9" data-name="Group 9" transform="translate(0)">
        <path id="Path_7" data-name="Path 7" d="M91.239,21.683A24.7,24.7,0,1,0,63.7,49.226v4.729H56.637a3.025,3.025,0,0,0-3.025,3.025v3.025H79.829V56.981A3.025,3.025,0,0,0,76.8,53.955H69.745V49.226A24.7,24.7,0,0,0,91.239,21.683ZM76.8,55.973a1.009,1.009,0,0,1,1.009,1.009V57.99H55.628V56.982a1.009,1.009,0,0,1,1.009-1.009ZM65.712,53.956V49.924h2.022v4.033ZM66.721,47.4A22.688,22.688,0,1,1,89.409,24.714,22.688,22.688,0,0,1,66.721,47.4Z" transform="translate(-42.015 -0.002)"/>
        <path id="Path_8" data-name="Path 8" d="M112.384,51.262V49.241a1.009,1.009,0,0,0-1.009-1.009H99.586a11.084,11.084,0,0,0-6.36-20.167H91.2A1.009,1.009,0,0,0,90.2,29.074V40.865a11.084,11.084,0,0,0-20.167,6.36v2.017a1.009,1.009,0,0,0,1.009,1.009H82.831a11.084,11.084,0,0,0,6.36,20.167H91.2a1.009,1.009,0,0,0,1.009-1.009V57.618a11.084,11.084,0,0,0,20.172-6.356ZM92.217,30.082h1.009a9.075,9.075,0,0,1,2.788,17.705,5.044,5.044,0,0,0-3.8-3.49ZM72.05,48.232V47.224a9.075,9.075,0,0,1,17.705-2.787,5.044,5.044,0,0,0-3.492,3.8ZM90.2,68.4H89.192A9.075,9.075,0,0,1,86.4,50.695a5.044,5.044,0,0,0,3.8,3.49Zm1.009-16.134a3.032,3.032,0,1,0-.005,0Zm10.067,8.051a9.075,9.075,0,0,1-8.616-6.275,5.044,5.044,0,0,0,3.484-3.792h14.218v1.009a9.075,9.075,0,0,1-9.087,9.063Z" transform="translate(-66.504 -24.529)" fill="#f91164"/>
      </g>
    </g>
  </g>
</svg>
