<svg fill="#baa173" xmlns="http://www.w3.org/2000/svg" viewBox="0 0 80 80" width="50px" height="50px"><path d="M 21 9.382813 L 21 39 L 20 39 C 18.894531 39 18 39.894531 18 41 C 18 42.105469 18.894531 43 20 43 L 60 43 C 61.105469 43 62 42.105469 62 41 C 62 39.894531 61.105469 39 60 39 L 59 39 L 59 9.382813 L 56.007813 10.878906 L 54.082031 9.882813 L 52.007813 10.886719 L 50 9.882813 L 48 10.882813 L 46 9.882813 L 44.007813 10.878906 L 42.082031 9.882813 L 40 10.890625 L 37.917969 9.882813 L 36 10.875 L 34.082031 9.882813 L 32 10.890625 L 29.917969 9.882813 L 27.984375 10.882813 L 25.917969 9.882813 L 23.992188 10.878906 Z M 25.949219 12.117188 L 28.015625 13.117188 L 29.949219 12.117188 L 32 13.109375 L 34.050781 12.117188 L 36 13.125 L 37.949219 12.117188 L 40 13.109375 L 42.050781 12.117188 L 43.992188 13.121094 L 46 12.117188 L 48 13.117188 L 50 12.117188 L 51.992188 13.113281 L 54.050781 12.117188 L 55.992188 13.121094 L 57 12.617188 L 57 41 L 23 41 L 23 12.617188 L 24.007813 13.121094 Z M 27 20 L 27 22 L 43 22 L 43 20 Z M 47 20 L 47 22 L 53 22 L 53 20 Z M 27 26 L 27 28 L 39 28 L 39 26 Z M 47 26 L 47 28 L 53 28 L 53 26 Z M 17 30 C 13.144531 30 10 33.144531 10 37 L 10 69 L 12 69 L 12 37 C 12 34.226563 14.226563 32 17 32 L 19 32 L 19 30 Z M 61 30 L 61 32 L 63 32 C 65.773438 32 68 34.226563 68 37 L 68 69 L 70 69 L 70 37 C 70 33.144531 66.855469 30 63 30 Z M 26 34 C 25.449219 34 25 34.449219 25 35 C 25 35.550781 25.449219 36 26 36 C 26.550781 36 27 35.550781 27 35 C 27 34.449219 26.550781 34 26 34 Z M 30 34 C 29.449219 34 29 34.449219 29 35 C 29 35.550781 29.449219 36 30 36 C 30.550781 36 31 35.550781 31 35 C 31 34.449219 30.550781 34 30 34 Z M 34 34 C 33.449219 34 33 34.449219 33 35 C 33 35.550781 33.449219 36 34 36 C 34.550781 36 35 35.550781 35 35 C 35 34.449219 34.550781 34 34 34 Z M 38 34 C 37.449219 34 37 34.449219 37 35 C 37 35.550781 37.449219 36 38 36 C 38.550781 36 39 35.550781 39 35 C 39 34.449219 38.550781 34 38 34 Z M 42 34 C 41.449219 34 41 34.449219 41 35 C 41 35.550781 41.449219 36 42 36 C 42.550781 36 43 35.550781 43 35 C 43 34.449219 42.550781 34 42 34 Z M 46 34 C 45.449219 34 45 34.449219 45 35 C 45 35.550781 45.449219 36 46 36 C 46.550781 36 47 35.550781 47 35 C 47 34.449219 46.550781 34 46 34 Z M 50 34 C 49.449219 34 49 34.449219 49 35 C 49 35.550781 49.449219 36 50 36 C 50.550781 36 51 35.550781 51 35 C 51 34.449219 50.550781 34 50 34 Z M 54 34 C 53.449219 34 53 34.449219 53 35 C 53 35.550781 53.449219 36 54 36 C 54.550781 36 55 35.550781 55 35 C 55 34.449219 54.550781 34 54 34 Z M 21 48 C 19.90625 48 19 48.90625 19 50 L 19 56 C 19 57.09375 19.90625 58 21 58 L 60 58 C 61.09375 58 62 57.09375 62 56 L 62 50 C 62 48.90625 61.09375 48 60 48 Z M 21 50 L 60 50 L 60 56 L 21 56 Z M 21 61 C 19.90625 61 19 61.90625 19 63 L 19 67 C 19 68.09375 19.90625 69 21 69 L 25 69 C 26.09375 69 27 68.09375 27 67 L 27 63 C 27 61.90625 26.09375 61 25 61 Z M 31 61 C 29.90625 61 29 61.90625 29 63 L 29 67 C 29 68.09375 29.90625 69 31 69 L 35 69 C 36.09375 69 37 68.09375 37 67 L 37 63 C 37 61.90625 36.09375 61 35 61 Z M 41 61 C 39.90625 61 39 61.90625 39 63 L 39 67 C 39 68.09375 39.90625 69 41 69 L 45 69 C 46.09375 69 47 68.09375 47 67 L 47 63 C 47 61.90625 46.09375 61 45 61 Z M 56 61 C 54.90625 61 54 61.90625 54 63 L 54 67 C 54 68.09375 54.90625 69 56 69 L 60 69 C 61.09375 69 62 68.09375 62 67 L 62 63 C 62 61.90625 61.09375 61 60 61 Z M 21 63 L 25 63 L 25 67 L 21 67 Z M 31 63 L 35 63 L 35 67 L 31 67 Z M 41 63 L 45 63 L 45 67 L 41 67 Z M 56 63 L 60 63 L 60 67 L 56 67 Z"/></svg>