<?xml version="1.0"?>
<svg xmlns="http://www.w3.org/2000/svg" width="48.022" height="48.021" viewBox="0 0 48.022 48.021">
  <g id="money" transform="translate(0 -0.004)">
    <g id="Group_5" data-name="Group 5" transform="translate(13.429 4.806)">
      <g id="Group_4" data-name="Group 4">
        <path id="Path_12" data-name="Path 12" d="M152.779,54.632a1.241,1.241,0,0,0,.036-.226V49.6a.8.8,0,1,0-1.6,0v3.6a10.628,10.628,0,0,0-6.259-2h-.07a10.484,10.484,0,0,0-4.877,1.184V48.8a.8.8,0,1,0-1.6,0v4.615a10.843,10.843,0,0,0,6.544,19.4h.07a10.814,10.814,0,0,0,7.756-18.182Zm-7.767,16.582h-.059a9.2,9.2,0,0,1-.058-18.408h.059a9.2,9.2,0,0,1,.058,18.408Z" transform="translate(-134.23 -48.004)" fill="#ffde0a"/>
      </g>
    </g>
    <g id="Group_7" data-name="Group 7" transform="translate(17.608 0.004)">
      <g id="Group_6" data-name="Group 6" transform="translate(0 0)">
        <path id="Path_13" data-name="Path 13" d="M176.8,0a.8.8,0,0,0-.8.8v1.6a.8.8,0,1,0,1.6,0V.8A.8.8,0,0,0,176.8,0Z" transform="translate(-176 -0.004)" fill="#ffde0a"/>
      </g>
    </g>
    <g id="Group_9" data-name="Group 9" transform="translate(30.413 0.804)">
      <g id="Group_8" data-name="Group 8">
        <path id="Path_14" data-name="Path 14" d="M304.8,8a.8.8,0,0,0-.8.8v1.6a.8.8,0,0,0,1.6,0V8.8A.8.8,0,0,0,304.8,8Z" transform="translate(-304 -8.004)" fill="#ffde0a"/>
      </g>
    </g>
    <g id="Group_11" data-name="Group 11" transform="translate(8.804 18.412)">
      <g id="Group_10" data-name="Group 10">
        <path id="Path_15" data-name="Path 15" d="M88.8,184a.8.8,0,0,0-.8.8v6.4a.8.8,0,1,0,1.6,0v-6.4A.8.8,0,0,0,88.8,184Z" transform="translate(-88 -184.004)" fill="#ffde0a"/>
      </g>
    </g>
    <g id="Group_13" data-name="Group 13" transform="translate(8.804 13.61)">
      <g id="Group_12" data-name="Group 12">
        <path id="Path_16" data-name="Path 16" d="M88.8,136a.8.8,0,0,0-.8.8v1.6a.8.8,0,0,0,1.6,0v-1.6A.8.8,0,0,0,88.8,136Z" transform="translate(-88 -136.004)" fill="#ffde0a"/>
      </g>
    </g>
    <g id="Group_15" data-name="Group 15" transform="translate(39.217 11.209)">
      <g id="Group_14" data-name="Group 14">
        <path id="Path_17" data-name="Path 17" d="M392.8,112a.8.8,0,0,0-.8.8v6.4a.8.8,0,0,0,1.6,0v-6.4A.8.8,0,0,0,392.8,112Z" transform="translate(-392 -112.004)" fill="#ffde0a"/>
      </g>
    </g>
    <g id="Group_17" data-name="Group 17" transform="translate(39.217 6.407)">
      <g id="Group_16" data-name="Group 16">
        <path id="Path_18" data-name="Path 18" d="M392.8,64a.8.8,0,0,0-.8.8v1.6a.8.8,0,0,0,1.6,0V64.8A.8.8,0,0,0,392.8,64Z" transform="translate(-392 -64.004)" fill="#ffde0a"/>
      </g>
    </g>
    <g id="Group_19" data-name="Group 19" transform="translate(20.768 12.009)">
      <g id="Group_18" data-name="Group 18">
        <path id="Path_19" data-name="Path 19" d="M214.025,128.772l-.006-.8a2.382,2.382,0,0,0-.714-1.694,2.355,2.355,0,0,0-1.7-.688l-1.6.015h0a.806.806,0,0,1-.8-.8l0-.8a.8.8,0,0,1,.8-.807l.781-.006c.026,0,.048.014.075.014h0c.027,0,.05-.014.077-.016l2.262-.014a.785.785,0,1,0,0-1.57h0l-1.539-.006,0-.792a.807.807,0,0,0-.8-.8h0a.806.806,0,0,0-.8.811l0,.79h-.061a2.394,2.394,0,0,0-2.386,2.411l0,.8a2.407,2.407,0,0,0,2.4,2.388h1.621a.782.782,0,0,1,.8.78l.006.8a.8.8,0,0,1-.8.8l-3.2.02a.8.8,0,0,0,0,1.6h0l1.6-.01,0,.816a.8.8,0,0,0,.8.795h0a.8.8,0,0,0,.8-.806l0-.816A2.4,2.4,0,0,0,214.025,128.772Z" transform="translate(-207.592 -120.004)" fill="#ffde0a"/>
      </g>
    </g>
    <g id="Group_21" data-name="Group 21" transform="translate(17.868 18.534)">
      <g id="Group_20" data-name="Group 20" transform="translate(0 0)">
        <circle id="Ellipse_1" data-name="Ellipse 1" cx="0.5" cy="0.5" r="0.5" transform="translate(0.132 0.47)" fill="#ffde0a"/>
      </g>
    </g>
    <g id="Group_23" data-name="Group 23" transform="translate(29.118 18.534)">
      <g id="Group_22" data-name="Group 22" transform="translate(0 0)">
        <circle id="Ellipse_2" data-name="Ellipse 2" cx="0.5" cy="0.5" r="0.5" transform="translate(-0.118 0.47)" fill="#ffde0a"/>
      </g>
    </g>
    <g id="Group_25" data-name="Group 25" transform="translate(0 31.218)">
      <g id="Group_24" data-name="Group 24">
        <path id="Path_20" data-name="Path 20" d="M47.221,312h-8.8a2.4,2.4,0,0,0-2.254,1.6H32.156a.8.8,0,0,0-.8.775l-6.677-1.515a2.436,2.436,0,0,0-1.442.112l-6.267,2.486a2.783,2.783,0,0,0-1.646,1.76L3.09,313.633a2.422,2.422,0,0,0-2.147.384A2.324,2.324,0,0,0,0,315.889v1.736a2.336,2.336,0,0,0,1.078,1.965l8.891,5.754a.808.808,0,0,0,.257.108l13.238,3.023a2.456,2.456,0,0,0,1.093,0l6.967-1.6a.783.783,0,0,0,.633.335h4.007a2.4,2.4,0,0,0,2.254,1.6h8.8a.8.8,0,0,0,.8-.8V312.8A.8.8,0,0,0,47.221,312ZM31.163,325.317l-6.965,1.6a.833.833,0,0,1-.377,0l-13.1-2.992-8.773-5.678a.742.742,0,0,1-.347-.621v-1.736a.726.726,0,0,1,.3-.589.822.822,0,0,1,.736-.13L15.346,318.9a2.84,2.84,0,0,0,2.694,1.906H24.01a.8.8,0,1,0,0-1.6H18.04a1.2,1.2,0,0,1-1.233-1.169,1.174,1.174,0,0,1,.759-1.085l6.267-2.487a.84.84,0,0,1,.5-.039l6.88,1.561Zm4.853.293h-3.2v-10.4h3.2Zm10.4,1.6h-8a.8.8,0,0,1-.8-.8V314.4a.8.8,0,0,1,.8-.8h8Z" transform="translate(0 -312.004)" fill="#ffde0a"/>
      </g>
    </g>
    <g id="Group_27" data-name="Group 27" transform="translate(40.161 43.223)">
      <g id="Group_26" data-name="Group 26">
        <path id="Path_21" data-name="Path 21" d="M404.633,432h-2.4a.8.8,0,1,0,0,1.6h2.4a.8.8,0,0,0,0-1.6Z" transform="translate(-401.432 -432.004)" fill="#ffde0a"/>
      </g>
    </g>
  </g>
</svg>
