<svg xmlns="http://www.w3.org/2000/svg" width="203.786" height="203.182" viewBox="0 0 203.786 203.182">
  <g id="search" transform="translate(0 -0.302)">
    <path id="Path_13" data-name="Path 13" d="M107.387,49.855a40.8,40.8,0,0,1,11.71,34.09,40.854,40.854,0,0,0-81.081.03,40.869,40.869,0,0,1,69.371-34.12Zm96.4,136.458-17.064,17.171-50.6-50.307,4.268-4.291-10.609-10.557A78.508,78.508,0,0,1,0,79.084a78.554,78.554,0,0,1,133.944-55.93,78.45,78.45,0,0,1,4.368,106.6l10.6,10.539L153.189,136Zm-78.111-60.6a66.447,66.447,0,0,0-94.237-93.7,66.447,66.447,0,0,0,94.237,93.7Z" fill="#666"/>
  </g>
</svg>
