<svg xmlns="http://www.w3.org/2000/svg" width="24.065" height="28.522" viewBox="0 0 24.065 28.522">
  <g id="stopwatch" transform="translate(-40.001)">
    <g id="Group_29" data-name="Group 29" transform="translate(40.001)">
      <g id="Group_28" data-name="Group 28" transform="translate(0)">
        <path id="Path_22" data-name="Path 22" d="M61.2,8.692l1.477-1.477a.557.557,0,0,0,0-.788L61.1,4.851a.557.557,0,0,0-.788,0L58.7,6.467a11.909,11.909,0,0,0-4.992-1.893V3.343h.279a.557.557,0,0,0,.557-.557V.557A.557.557,0,0,0,53.989,0h-3.9a.557.557,0,0,0-.557.557V2.786a.557.557,0,0,0,.557.557h.279v1.23A12.029,12.029,0,1,0,61.2,8.692Zm-.493-2.659.788.787L60.442,7.877q-.4-.392-.834-.743ZM50.645,1.114h2.786V2.229H50.645ZM52.6,3.343V4.471q-.277-.013-.557-.013c-.186,0-.372,0-.557.013V3.343Zm-.557,24.076A10.923,10.923,0,1,1,62.962,16.5,10.923,10.923,0,0,1,52.039,27.419Z" transform="translate(-40.001)" fill="#3C1E54"/>
        <path id="Path_23" data-name="Path 23" d="M89.807,120a9.807,9.807,0,1,0,9.807,9.807A9.807,9.807,0,0,0,89.807,120Zm0,18.5a8.692,8.692,0,1,1,8.692-8.692A8.692,8.692,0,0,1,89.807,138.5Z" transform="translate(-77.771 -113.312)" fill="#3C1E54"/>
        <path id="Path_24" data-name="Path 24" d="M228.236,166.949l.008-5.394a.557.557,0,0,0-.557-.556h0a.557.557,0,0,0-.557.556l-.008,5.389a1.672,1.672,0,0,0,0,3.155v.875a.557.557,0,0,0,.556.558h0a.557.557,0,0,0,.557-.556V170.1a1.672,1.672,0,0,0,0-3.15Zm-.563,2.132a.557.557,0,1,1,.557-.557A.557.557,0,0,1,227.673,169.081Z" transform="translate(-215.635 -152.027)" fill="#3C1E54"/>
      </g>
    </g>
  </g>
</svg>
